<svg
  xmlns="http://www.w3.org/2000/svg"
  viewBox="0 0 1024 1024"
  role="img"
  aria-labelledby="title description"
>
  <title id="title">Shikin logo</title>
  <desc id="description">
    Vector-traced abstract violet and ivory capital-flow ring on a black rounded-square background.
  </desc>
  <rect class="logo-background" width="1024" height="1024" rx="228" fill="#020202" />
  <g class="logo-mark" transform="translate(0 1024) scale(0.1 -0.1)">
    <path
      class="logo-layer-1"
      fill="#4c395e"
      d="M5083 8363 c26 -2 68 -2 95 0 26 2 4 3 -48 3 -52 0 -74 -1 -47 -3z M5033 7603 c31 -2 83 -2 115 0 31 2 5 3 -58 3 -63 0 -89 -1 -57 -3z M2965 7448 l-80 -83 83 80 c76 74 87 85 79 85 -1 0 -38 -37 -82 -82z M6690 6925 c30 -30 57 -55 59 -55 3 0 -19 25 -49 55 -30 30 -57 55 -59 55 -3 0 19 -25 49 -55z M3465 6928 l-40 -43 43 40 c23 21 42 40 42 42 0 8 -9 0 -45 -39z M7903 6210 c0 -47 2 -66 4 -42 2 23 2 61 0 85 -2 23 -4 4 -4 -43z M2793 5355 c0 -27 2 -38 4 -22 2 15 2 37 0 50 -2 12 -4 0 -4 -28z M2645 4780 c27 -27 51 -50 54 -50 3 0 -17 23 -44 50 -27 28 -51 50 -54 50 -3 0 17 -22 44 -50z M7075 4698 l-50 -53 53 50 c48 46 57 55 49 55 -1 0 -25 -24 -52 -52z M2520 4525 c19 -19 36 -35 39 -35 3 0 -10 16 -29 35 -19 19 -36 35 -39 35 -3 0 10 -16 29 -35z M3860 4210 c-11 -7 -7 -10 18 -10 20 0 31 4 27 10 -8 13 -26 13 -45 0z M3610 3684 c0 -6 17 -26 38 -45 l37 -34 -35 40 c-19 22 -36 42 -37 44 -2 2 -3 0 -3 -5z M2980 3155 c47 -47 87 -85 90 -85 2 0 -33 38 -80 85 -47 47 -87 85 -90 85 -2 0 33 -38 80 -85z M7275 3158 l-80 -83 83 80 c76 74 87 85 79 85 -1 0 -38 -37 -82 -82z M4978 3073 c18 -2 45 -2 60 0 15 2 0 4 -33 4 -33 0 -45 -2 -27 -4z M5228 3073 c12 -2 32 -2 45 0 12 2 2 4 -23 4 -25 0 -35 -2 -22 -4z M5043 2263 c42 -2 112 -2 155 0 42 1 7 3 -78 3 -85 0 -120 -2 -77 -3z"
    />
    <path
      class="logo-layer-2"
      fill="#5832a6"
      d="M6709 7574 c209 -247 315 -411 407 -630 127 -305 187 -632 179 -983 -1 -44 8 -117 22 -185 12 -61 23 -121 23 -133 0 -16 6 -21 20 -20 11 1 20 2 20 4 0 1 13 49 30 105 100 347 100 642 -1 951 -57 177 -241 507 -277 500 -6 -2 -9 3 -6 10 7 19 -185 217 -305 313 -129 104 -156 121 -112 68z M2173 5810 c0 -36 2 -50 4 -32 2 17 2 47 0 65 -2 17 -4 3 -4 -33z M7804 5557 c-18 -50 -35 -101 -39 -112 -6 -17 -5 -18 5 -5 10 13 11 12 6 -3 -3 -10 -6 -21 -6 -23 0 -3 -4 -2 -10 1 -5 3 -10 1 -10 -5 0 -7 -18 -50 -40 -97 -22 -46 -38 -88 -37 -92 1 -3 -4 -13 -11 -21 -7 -8 -35 -53 -63 -100 -60 -102 -156 -237 -224 -317 -27 -31 -49 -61 -47 -66 1 -5 -1 -6 -6 -3 -21 13 -81 -70 -107 -149 -57 -173 -214 -450 -361 -638 -131 -166 -390 -399 -569 -512 -33 -21 -63 -42 -66 -47 -3 -6 -9 -9 -13 -9 -3 1 -45 -19 -94 -43 -477 -239 -959 -303 -1460 -195 -52 11 -146 39 -211 61 -64 22 -124 41 -133 41 -9 1 -14 6 -11 11 4 5 -1 7 -10 3 -10 -3 -17 -3 -17 1 0 9 -111 58 -122 54 -5 -1 -8 3 -8 9 0 5 -4 7 -10 4 -5 -3 -10 -3 -10 2 0 11 -100 67 -100 56 0 -4 -4 -3 -8 4 -10 15 -159 113 -173 113 -6 0 -32 20 -57 45 -25 25 -51 45 -59 45 -7 0 -13 4 -13 8 0 5 -22 26 -50 48 -27 21 -49 44 -50 50 0 6 -19 14 -42 17 -107 15 -329 90 -607 205 -10 4 -12 1 -6 -8 5 -9 4 -11 -4 -6 -6 4 -9 11 -6 15 2 5 -18 20 -46 36 -42 22 -49 24 -40 9 103 -187 183 -311 270 -414 251 -302 493 -495 828 -664 719 -362 1471 -379 2205 -50 421 188 780 480 1070 867 245 328 452 782 539 1180 57 260 87 562 72 709 l-8 78 -31 -93z"
    />
    <path
      class="logo-layer-3"
      fill="#7546ba"
      d="M7293 6055 c0 -27 2 -38 4 -22 2 15 2 37 0 50 -2 12 -4 0 -4 -28z"
    />
    <path
      class="logo-layer-4"
      fill="#874abd"
      d="M5078 2573 c29 -2 74 -2 100 0 26 2 2 3 -53 3 -55 0 -76 -1 -47 -3z"
    />
    <path
      class="logo-layer-5"
      fill="#a654ed"
      d="M4905 8350 c-724 -60 -1396 -372 -1916 -890 -392 -391 -675 -887 -780 -1370 -19 -87 -23 -135 -23 -280 0 -157 3 -186 27 -284 108 -432 442 -830 901 -1075 144 -77 372 -160 549 -201 131 -30 135 -24 12 19 -150 52 -243 97 -351 169 -238 157 -395 349 -479 585 -47 130 -59 230 -52 412 16 381 114 698 325 1050 100 166 202 296 352 446 351 352 772 569 1270 654 152 26 460 31 615 10 402 -54 769 -206 1105 -458 117 -87 309 -273 400 -387 161 -202 308 -468 386 -699 l43 -126 0 126 c2 489 -165 990 -452 1359 -239 306 -520 538 -852 703 -272 135 -534 211 -825 237 -124 11 -121 11 -255 0z M7821 5085 c-71 -434 -208 -805 -433 -1182 -143 -238 -388 -522 -618 -715 -259 -218 -623 -411 -956 -508 -257 -75 -455 -104 -709 -103 -493 2 -939 136 -1385 416 -274 171 -556 452 -739 732 -40 61 -86 139 -104 175 -31 63 -35 67 -137 128 -134 79 -290 203 -413 327 -53 53 -97 92 -97 87 0 -6 16 -56 36 -112 244 -702 684 -1249 1309 -1627 253 -153 567 -282 847 -347 495 -116 912 -114 1403 5 94 23 172 45 175 49 3 4 29 15 59 25 72 23 275 129 392 202 408 257 750 652 1000 1153 183 367 323 822 374 1218 19 142 16 195 -4 77z"
    />
    <path
      class="logo-layer-6"
      fill="#c4a1e2"
      d="M6585 7690 c33 -33 62 -60 64 -60 3 0 -21 27 -54 60 -33 33 -62 60 -64 60 -3 0 21 -27 54 -60z M6985 7360 c49 -49 92 -90 95 -90 2 0 -36 41 -85 90 -49 50 -92 90 -95 90 -2 0 36 -40 85 -90z M7743 6210 c0 -30 2 -43 4 -27 2 15 2 39 0 55 -2 15 -4 2 -4 -28z M7854 5395 c0 -49 1 -71 3 -48 2 23 2 64 0 90 -2 26 -3 8 -3 -42z M8154 5290 c0 -58 1 -81 3 -52 2 28 2 76 0 105 -2 28 -3 5 -3 -53z M7843 5165 c0 -22 2 -30 4 -17 2 12 2 30 0 40 -3 9 -5 -1 -4 -23z M2320 4355 c19 -19 36 -35 39 -35 3 0 -10 16 -29 35 -19 19 -36 35 -39 35 -3 0 10 -16 29 -35z M6925 3028 l-40 -43 43 40 c23 21 42 40 42 42 0 8 -9 0 -45 -39z M6820 2923 l-55 -58 58 55 c53 50 62 60 54 60 -1 0 -27 -26 -57 -57z M6030 2424 c-35 -14 -35 -14 0 -8 36 6 46 11 39 18 -2 2 -20 -3 -39 -10z"
    />
    <path
      class="logo-layer-7"
      fill="#80807d"
      d="M6919 4923 c-34 -38 -34 -38 4 -4 34 33 42 41 34 41 -2 0 -19 -17 -38 -37z M4303 3883 c32 -2 81 -2 110 0 29 2 3 3 -58 3 -60 0 -84 -1 -52 -3z"
    />
    <path
      class="logo-layer-8"
      fill="#a0a09e"
      d="M7160 7558 c24 -27 45 -48 47 -48 8 0 0 9 -44 50 l-48 45 45 -47z M7743 6125 c0 -22 2 -30 4 -17 2 12 2 30 0 40 -3 9 -5 -1 -4 -23z M8153 5430 c0 -25 2 -35 4 -22 2 12 2 32 0 45 -2 12 -4 2 -4 -23z M4198 3883 c12 -2 30 -2 40 0 9 3 -1 5 -23 4 -22 0 -30 -2 -17 -4z M4478 3883 c12 -2 30 -2 40 0 9 3 -1 5 -23 4 -22 0 -30 -2 -17 -4z M4508 3613 c12 -2 30 -2 40 0 9 3 -1 5 -23 4 -22 0 -30 -2 -17 -4z"
    />
    <path
      class="logo-layer-9"
      fill="#fbf9f4"
      d="M5190 8354 c378 -43 734 -173 1057 -387 116 -77 317 -239 368 -297 11 -12 49 -41 85 -64 153 -99 349 -287 473 -452 159 -212 272 -480 306 -728 16 -111 13 -345 -4 -456 -67 -419 -265 -776 -622 -1121 -387 -375 -844 -635 -1425 -810 -703 -212 -1458 -212 -2100 1 -159 53 -456 201 -577 288 -117 83 -303 260 -387 368 -105 134 -193 297 -239 444 -27 84 -35 100 -30 65 2 -16 7 -75 10 -130 8 -150 72 -490 108 -577 20 -48 162 -195 281 -291 485 -390 1118 -590 1866 -589 1018 0 2034 407 2713 1087 192 192 346 404 460 637 103 209 159 390 193 618 24 166 15 449 -20 615 -106 503 -395 914 -886 1259 -443 311 -999 496 -1560 519 -58 3 -89 3 -70 1z M7870 6615 c0 -6 7 -42 16 -80 9 -42 17 -145 21 -260 6 -202 -9 -372 -46 -527 -15 -64 -16 -94 -9 -209 40 -613 -185 -1445 -547 -2024 -285 -456 -630 -780 -1071 -1006 -152 -78 -148 -80 26 -12 685 269 1245 785 1570 1447 169 345 274 706 310 1065 13 134 13 475 -1 599 -26 242 -88 531 -161 745 -39 116 -107 281 -108 262z"
    />
  </g>
</svg>
