<?xml version="1.0" encoding="UTF-8"?>
<!-- Generator: visioncortex VTracer 0.6.5 -->
<svg version="1.1" xmlns="http://www.w3.org/2000/svg" width="1254" height="1254">
  <path
    d="M0 0 C413.82 0 827.64 0 1254 0 C1254 413.82 1254 827.64 1254 1254 C840.18 1254 426.36 1254 0 1254 C0 840.18 0 426.36 0 0 Z "
    fill="#000000"
    transform="translate(0,0)"
  />
  <path
    d="M0 0 C2.02 0.27 4.05 0.53 6.13 0.81 C86.98 12.43 166.53 52.95 219.06 116.31 C219.88 117.42 219.88 117.42 224 123 C225.82 125.37 227.63 127.74 229.5 130.19 C242.08 148.05 252.47 167.1 259 188 C259.99 190.64 260.98 193.28 262 196 C263.05 200.32 264.05 204.66 265 209 C266.26 214.68 267.59 220.35 269 226 C273.4 257.04 272.18 287.76 264 318 C263.4 320.23 262.8 322.45 262.19 324.75 C257.62 339.88 252.43 353.99 245 368 C244.52 368.9 244.52 368.9 242.11 373.46 C222.2 410.57 194.93 443.65 162 470 C159.98 471.75 157.96 473.51 155.88 475.31 C143.59 485.48 130.34 494.28 117 503 C115.53 503.96 114.07 504.92 112.55 505.91 C79.25 527.19 43.26 542.22 6 555 C3.6 555.83 1.19 556.66 -1.28 557.51 C-27.64 566.02 -54.6 571.21 -82 575 C-83.49 575.21 -83.49 575.21 -91.02 576.25 C-166.6 585.5 -263.51 579.66 -329 536 C-309.4 572.7 -283.82 607.03 -251 633 C-248.83 634.75 -246.67 636.51 -244.44 638.31 C-221.63 655.75 -196.07 671.21 -169 681 C-168.15 681.39 -168.15 681.39 -163.86 683.39 C-129.1 698.9 -90.39 704.17 -52.69 704.25 C-50.4 704.27 -48.12 704.29 -45.76 704.31 C-32.44 704.34 -20.09 703.48 -7 701 C-5.73 700.77 -5.73 700.77 0.68 699.61 C26.93 694.43 51.82 687.71 76 676 C77.78 675.17 79.55 674.35 81.38 673.5 C111.65 659.33 138.36 641.64 163 619 C164.61 617.58 166.22 616.15 167.88 614.69 C177.35 606.02 185.99 597.04 194 587 C195.73 585.02 197.47 583.04 199.25 581 C222.83 552.3 241.27 518.44 255 484 C255.83 482.22 256.65 480.44 257.5 478.6 C266.11 459.29 271.27 438.02 275.04 417.27 C275.85 412.81 276.9 408.4 278 404 C278.56 400.07 279.08 396.13 279.56 392.19 C280.9 381.31 280.9 381.31 282 378 C282.06 374.08 282.06 370.16 282.03 366.25 C282.02 363.86 282 361.48 281.99 359.03 C281.96 354 281.92 348.96 281.87 343.93 C281.87 342.73 281.87 342.73 281.84 336.68 C281.82 334.49 281.81 332.3 281.79 330.04 C282.29 315.71 282.29 315.71 285 313 C287.83 295.08 289.33 277.49 289.25 259.38 C289.26 257.54 289.27 255.7 289.27 253.81 C289.25 238.46 287.66 223.95 284 209 C283.67 207.02 283.34 205.04 283 203 C292.33 207.67 298.5 237.06 302 247 C303.44 251.63 304.76 256.31 306 261 C306.52 262.92 307.05 264.84 307.59 266.82 C316.47 300.6 321.36 334.6 321.31 369.5 C321.33 371.78 321.34 374.05 321.36 376.4 C321.38 458.1 291.45 539.1 241 603 C239.72 604.65 238.44 606.3 237.12 608 C231.99 614.23 226.5 620.09 221 626 C219.76 627.42 218.52 628.85 217.25 630.31 C211.29 637.08 204.84 643.14 198 649 C195.94 650.82 193.88 652.63 191.75 654.5 C178.61 665.74 164.7 675.9 150 685 C148.12 686.22 146.25 687.43 144.31 688.69 C125.56 699.75 106.2 708.94 86 717 C83.9 717.88 81.8 718.77 79.64 719.68 C74.47 721.81 69.37 723.45 64 725 C61.36 725.99 58.72 726.98 56 728 C53.03 728.66 50.06 729.32 47 730 C39.73 731.77 32.46 733.55 25.2 735.34 C18.81 736.81 12.46 737.95 6 739 C5.34 739.33 4.68 739.66 4 740 C0.59 740.54 -2.83 741.03 -6.25 741.5 C-8.11 741.76 -9.97 742.02 -11.89 742.28 C-52.27 747.03 -92.41 743.49 -132 735 C-134.76 734.44 -137.53 733.89 -140.38 733.31 C-157.23 728.79 -174.37 723.81 -190 716 C-191.98 715.26 -193.96 714.51 -196 713.75 C-203.95 710.63 -211.41 706.91 -219 703 C-221.74 701.6 -224.49 700.2 -227.31 698.75 C-249.05 686.86 -268.94 672.78 -288 657 C-289.68 655.67 -291.36 654.34 -293.09 652.97 C-300.14 647.04 -306.64 640.65 -313.12 634.12 C-314.34 632.92 -315.55 631.72 -316.79 630.48 C-323.64 623.62 -330 616.6 -336 609 C-337.98 606.57 -339.96 604.13 -342 601.62 C-363.06 574.86 -382.53 543.25 -394 511 C-394.3 510.26 -394.3 510.26 -395.81 506.5 C-397.8 501.5 -399.73 496.48 -401.62 491.44 C-402.22 489.87 -402.81 488.3 -403.41 486.68 C-405 482 -405 482 -407 473 C-407.93 469.87 -408.86 466.73 -409.81 463.5 C-416.92 438.86 -422.21 412.58 -422.06 386.88 C-422.05 384.83 -422.04 382.79 -422.04 380.68 C-422.03 379.91 -422.03 379.91 -422 376 C-420 379 -420 379 -418 388 C-411.69 406.45 -403.79 424.39 -392 440 C-391.45 440.74 -391.45 440.74 -388.69 444.5 C-382.22 452.4 -375.22 459.78 -368 467 C-366.54 468.53 -365.07 470.05 -363.56 471.62 C-344.63 489.92 -320.7 505.74 -296 515 C-294.45 515.8 -292.9 516.59 -291.3 517.41 C-233.88 545.48 -161.31 548.52 -99 543 C-98.34 542.67 -97.68 542.34 -97 542 C-93.57 541.55 -90.13 541.14 -86.69 540.75 C-48.34 536.01 -8.88 527.58 26.5 511.5 C32 509 32 509 39.12 506.5 C44.89 504.4 49.74 502.09 55 499 C56.65 498.34 58.3 497.68 60 497 C67.39 493.1 74.69 489.04 82 485 C84.27 483.76 86.54 482.52 88.88 481.25 C104.21 472.11 119.07 462.17 133 451 C134.86 449.51 136.71 448.03 138.62 446.5 C144.23 441.81 149.62 436.94 155 432 C155.73 431.37 155.73 431.37 159.44 428.19 C163 425 163 425 167 420 C170.01 416.99 173.05 414 176.12 411.06 C195.06 391.4 218.38 361.71 223 334 C222.34 334 221.68 334 221 334 C220.57 331.46 220.13 328.93 219.69 326.31 C218.32 318.79 216.8 311.42 215 304 C214.72 302.78 214.72 302.78 213.31 296.62 C201.62 253 179.3 214.33 149 181 C147.8 179.62 146.61 178.24 145.38 176.81 C119.38 147.44 82.55 123.85 46 110 C44.43 109.39 42.86 108.78 41.24 108.14 C29.37 103.64 17.51 100.15 5.16 97.23 C1.08 96.26 -2.97 95.15 -7 94 C-23.06 91.39 -38.61 90.45 -54.88 90.5 C-57.2 90.51 -59.53 90.51 -61.93 90.52 C-89.61 90.81 -114.7 95.47 -141 104 C-142.69 104.49 -144.39 104.98 -146.13 105.49 C-196.85 121.2 -245.89 157.32 -277 200 C-277.97 201.32 -278.93 202.64 -279.93 204 C-315.03 252.63 -334.29 305.53 -334.44 365.75 C-334.44 366.66 -334.44 366.66 -334.47 371.28 C-334.25 405.3 -317.39 435.08 -294 459 C-266.67 482.79 -236.38 495.34 -202 505 C-202 505.33 -202 505.66 -202 506 C-230.74 503.41 -262.95 495.49 -288 481 C-289.15 480.5 -289.15 480.5 -295 478 C-338.13 454.51 -370.89 422.65 -395 380 C-395.99 378.35 -396.98 376.7 -398 375 C-399.73 370.36 -401.39 365.69 -403 361 C-403.52 359.6 -403.52 359.6 -406.12 352.5 C-417.41 315.2 -412.74 274.71 -398 239 C-397.32 236.98 -396.64 234.96 -395.94 232.88 C-380.17 190.61 -355.22 153.24 -325 120 C-323.91 118.74 -322.83 117.49 -321.71 116.2 C-312.29 105.54 -302.13 95.85 -291 87 C-289.33 85.43 -287.66 83.87 -285.94 82.25 C-209.6 14.76 -100.04 -14.43 0 0 Z "
    fill="#A453EC"
    transform="translate(678,233)"
  />
  <path
    d="M0 0 C1.42 1.34 2.85 2.68 4.31 4.06 C5.65 5.22 6.99 6.37 8.38 7.56 C12.31 11.06 12.31 11.06 16.62 15.56 C21.55 20.29 26.53 23.46 32.31 27.06 C40.65 33.41 48.6 39.98 56.31 47.06 C57.65 48.22 58.99 49.37 60.38 50.56 C82.74 70.44 101.9 96.94 112.31 125.06 C113.1 127.12 113.88 129.19 114.69 131.31 C129.91 176.25 128.42 219.41 113.31 264.06 C112.65 266.37 111.99 268.68 111.31 271.06 C109.99 270.4 108.67 269.74 107.31 269.06 C106.18 263.42 105.2 257.75 104.31 252.06 C103.36 247.72 102.36 243.38 101.31 239.06 C101.03 237.85 101.03 237.85 99.62 231.69 C87.93 188.07 65.61 149.39 35.31 116.06 C34.12 114.68 32.92 113.3 31.69 111.88 C5.69 82.51 -31.14 58.91 -67.69 45.06 C-69.26 44.45 -70.83 43.84 -72.45 43.21 C-84.32 38.71 -96.18 35.21 -108.53 32.29 C-112.61 31.32 -116.66 30.21 -120.69 29.06 C-136.75 26.46 -152.3 25.52 -168.56 25.56 C-170.89 25.57 -173.22 25.58 -175.61 25.58 C-203.3 25.87 -228.39 30.53 -254.69 39.06 C-256.38 39.55 -258.08 40.05 -259.82 40.55 C-310.54 56.27 -359.57 92.38 -390.69 135.06 C-391.65 136.38 -392.62 137.7 -393.62 139.06 C-428.72 187.7 -447.98 240.59 -448.12 300.81 C-448.13 301.72 -448.13 301.72 -448.15 306.34 C-447.94 340.36 -431.07 370.14 -407.69 394.06 C-380.36 417.85 -350.07 430.4 -315.69 440.06 C-315.69 440.39 -315.69 440.72 -315.69 441.06 C-344.43 438.47 -376.63 430.55 -401.69 416.06 C-402.84 415.57 -402.84 415.57 -408.69 413.06 C-451.82 389.57 -484.57 357.71 -508.69 315.06 C-509.68 313.41 -510.67 311.76 -511.69 310.06 C-513.42 305.42 -515.08 300.75 -516.69 296.06 C-517.2 294.66 -517.2 294.66 -519.81 287.56 C-531.1 250.27 -526.43 209.77 -511.69 174.06 C-511.01 172.04 -510.33 170.02 -509.62 167.94 C-493.86 125.67 -468.91 88.3 -438.69 55.06 C-437.6 53.81 -436.52 52.55 -435.4 51.26 C-425.97 40.6 -415.82 30.92 -404.69 22.06 C-403.02 20.5 -401.35 18.93 -399.62 17.31 C-288.83 -80.65 -115.22 -100.02 0 0 Z "
    fill="#A754ED"
    transform="translate(791.6875,297.9375)"
  />
  <path
    d="M0 0 C0.33 0 0.66 0 1 0 C2.15 10.37 2.18 20.52 2.19 30.94 C2.2 32.91 2.21 34.89 2.22 36.92 C2.23 37.88 2.23 37.88 2.23 42.71 C2.23 44.45 2.24 46.18 2.24 47.97 C1.99 53.17 1.12 57.92 0 63 C-0.79 68.68 -1.51 74.36 -2.22 80.05 C-3 85 -3 85 -5 90 C-5.21 91.22 -5.21 91.22 -6.25 97.38 C-10.12 118.64 -15.95 139.34 -25 159 C-26.57 162.64 -28.13 166.29 -29.69 169.94 C-51.16 219.33 -82.01 264.68 -123 300 C-125 301.73 -127 303.46 -129.06 305.25 C-157.13 328.52 -189.6 347.71 -224 360 C-227.01 361.15 -230.02 362.31 -233.12 363.5 C-264.91 375.07 -298.37 380.17 -332.06 380.25 C-334.3 380.27 -336.54 380.29 -338.85 380.31 C-372.09 380.39 -403.76 374.29 -435 363 C-436.93 362.3 -438.86 361.61 -440.86 360.89 C-490.59 342.65 -536.91 311.79 -571 271 C-573 268.63 -575 266.26 -577.06 263.81 C-588.61 249.53 -598.23 234.11 -607 218 C-607.5 217.17 -607.5 217.17 -610 213 C-610 212.34 -610 211.68 -610 211 C-604.57 213.17 -599.39 215.69 -594.12 218.25 C-569.09 230.22 -543.21 238.56 -516 244 C-515.34 245.32 -514.68 246.64 -514 248 C-460.89 296.98 -391.46 320.42 -320 319 C-295.9 317.92 -271.61 313.48 -249 305 C-247.46 304.43 -245.92 303.86 -244.33 303.27 C-198.78 286.25 -158.72 260.34 -127 223 C-125.02 220.67 -123.04 218.34 -121 215.94 C-102.86 193.51 -81.39 162.94 -75.88 134.12 C-72.31 125.3 -67.22 120.79 -60.39 114.32 C-38.54 92.84 -20.12 60.58 -10 32 C-9.25 29.9 -8.5 27.79 -7.73 25.62 C-1.15 6.91 -1.15 6.91 0 0 Z "
    fill="#5832A6"
    transform="translate(959,558)"
  />
  <path
    d="M0 0 C91.63 -1.76 182.63 33.44 248.94 96.71 C258.38 106 267.12 115.32 275 126 C276.82 128.37 278.63 130.74 280.5 133.19 C293.08 151.05 303.47 170.1 310 191 C310.99 193.64 311.98 196.28 313 199 C314.05 203.32 315.05 207.66 316 212 C317.26 217.68 318.59 223.35 320 229 C324.4 260.04 323.18 290.76 315 321 C314.4 323.23 313.8 325.45 313.19 327.75 C308.62 342.88 303.43 356.99 296 371 C295.52 371.9 295.52 371.9 293.11 376.46 C273.2 413.57 245.93 446.65 213 473 C210.98 474.75 208.96 476.51 206.88 478.31 C194.59 488.48 181.34 497.28 168 506 C166.53 506.96 165.07 507.92 163.55 508.91 C130.25 530.19 94.26 545.22 57 558 C54.6 558.83 52.19 559.66 49.72 560.51 C23.36 569.02 -3.6 574.21 -31 578 C-32.49 578.21 -32.49 578.21 -40.02 579.25 C-119.4 588.96 -210.17 579.9 -280 538 C-281.43 537.16 -282.86 536.33 -284.34 535.47 C-308.85 521.02 -350.04 496.37 -359.06 467.37 C-365.28 441.91 -371.21 416.2 -371.06 389.88 C-371.05 387.83 -371.04 385.79 -371.04 383.68 C-371.03 382.91 -371.03 382.91 -371 379 C-369 382 -369 382 -367 391 C-360.69 409.45 -352.79 427.39 -341 443 C-340.45 443.74 -340.45 443.74 -337.69 447.5 C-331.22 455.4 -324.22 462.78 -317 470 C-315.54 471.53 -314.07 473.05 -312.56 474.62 C-293.63 492.92 -269.7 508.74 -245 518 C-243.45 518.8 -241.9 519.59 -240.3 520.41 C-182.88 548.48 -110.31 551.52 -48 546 C-47.34 545.67 -46.68 545.34 -46 545 C-42.57 544.55 -39.13 544.14 -35.69 543.75 C2.66 539.01 42.12 530.58 77.5 514.5 C83 512 83 512 90.12 509.5 C95.89 507.4 100.74 505.09 106 502 C107.65 501.34 109.3 500.68 111 500 C118.39 496.1 125.69 492.04 133 488 C135.27 486.76 137.54 485.52 139.88 484.25 C155.21 475.11 170.07 465.17 184 454 C185.86 452.51 187.71 451.03 189.62 449.5 C195.23 444.81 200.62 439.94 206 435 C206.73 434.37 206.73 434.37 210.44 431.19 C214 428 214 428 218 423 C221.01 419.99 224.05 417 227.12 414.06 C256.01 384.06 274.72 346.03 285 306 C285.42 304.42 285.84 302.84 286.27 301.21 C289.08 288.62 289.38 276.11 289.44 263.25 C289.44 262.39 289.44 262.39 289.47 258.04 C289.16 212.19 269.39 166.27 238 133 C236.82 131.64 235.65 130.28 234.44 128.88 C222.2 115.08 207.92 103.11 192.44 93.12 C184.13 87.4 178.03 81.23 171 74 C167.4 70.92 163.73 67.92 160 65 C157.94 63.37 155.88 61.74 153.75 60.06 C129.32 41.74 102.77 27.26 74 17 C73.2 16.66 73.2 16.66 69.12 14.94 C46.95 6.56 23.41 3.7 0 1 C0 0.67 0 0.34 0 0 Z "
    fill="#FBF9F4"
    transform="translate(627,230)"
  />
  <path
    d="M0 0 C9.33 4.67 15.5 34.06 19 44 C20.44 48.63 21.76 53.31 23 58 C23.52 59.92 24.05 61.84 24.59 63.82 C33.47 97.6 38.36 131.6 38.31 166.5 C38.33 168.78 38.34 171.05 38.36 173.4 C38.38 255.1 8.45 336.1 -42 400 C-43.28 401.65 -44.56 403.3 -45.88 405 C-51.01 411.23 -56.5 417.09 -62 423 C-63.24 424.42 -64.48 425.85 -65.75 427.31 C-71.71 434.08 -78.16 440.14 -85 446 C-86.03 446.91 -86.03 446.91 -91.25 451.5 C-104.39 462.74 -118.3 472.9 -133 482 C-134.88 483.22 -136.75 484.43 -138.69 485.69 C-157.44 496.75 -176.8 505.94 -197 514 C-199.06 514.9 -201.13 515.79 -203.25 516.71 C-209 519 -209 519 -216 520 C-213 517 -213 517 -208.19 515.06 C-183.78 504.66 -161.2 490.1 -141 473 C-139.04 471.43 -137.08 469.87 -135.06 468.25 C-130.08 464.07 -125.53 459.67 -121 455 C-117.94 451.94 -114.86 448.89 -111.75 445.88 C-106.81 440.81 -102.42 435.52 -98 430 C-97.22 429.08 -97.22 429.08 -93.25 424.44 C-81.54 410.08 -71.51 394.88 -62 379 C-60.64 376.73 -59.28 374.46 -57.88 372.12 C-53.46 364.01 -49.48 355.73 -45.55 347.37 C-43.64 343.36 -41.66 339.39 -39.62 335.44 C-36.57 329.1 -34.28 322.65 -32 316 C-31.01 313.36 -30.02 310.72 -29 308 C-10.54 257.35 12.53 185.12 -1 131 C-1 113 -1 113 2 110 C4.83 92.08 6.33 74.49 6.25 56.38 C6.26 54.54 6.27 52.7 6.27 50.81 C6.25 35.46 4.66 20.95 1 6 C0.67 4.02 0.34 2.04 0 0 Z "
    fill="#FBF9F4"
    transform="translate(961,436)"
  />
  <path
    d="M0 0 C37.41 14.96 70.78 61.41 86.19 97.06 C86.79 98.69 87.38 100.32 88 102 C88.39 103.03 88.39 103.03 90.38 108.25 C105.59 153.18 104.11 196.35 89 241 C88.34 243.31 87.68 245.62 87 248 C86.34 247.67 86.34 247.67 83 246 C81.87 240.36 80.89 234.69 80 229 C79.02 224.66 78.03 220.33 77 216 C76.32 212.67 75.65 209.34 75 206 C75.66 206 76.32 206 77 206 C76.72 179.14 75.73 153.16 69 127 C68.53 124.88 68.07 122.76 67.59 120.58 C65.95 113.79 63.87 107.34 61.56 100.75 C60.8 98.56 60.04 96.37 59.25 94.11 C46.37 59.19 25.86 29.35 1 2 C0.67 1.34 0.34 0.68 0 0 Z "
    fill="#5A33A7"
    transform="translate(816,321)"
  />
  <path
    d="M0 0 C43.12 -0.83 86.28 6.86 127 21 C127.16 21.33 127.16 21.33 128 23 C127.01 23 126.02 23 125 23 C125 23.66 125 24.32 125 25 C124.01 25 123.02 25 122 25 C122 24.34 122 23.68 122 23 C120.68 23.66 119.36 24.32 118 25 C116.68 24.67 115.36 24.34 114 24 C113.67 23.34 113.67 23.34 112 20 C110.02 20 108.04 20 106 20 C105.34 19.67 104.68 19.34 104 19 C103.67 20.98 103.34 22.96 103 25 C102.34 25 101.68 25 101 25 C101 25.66 101 26.32 101 27 C90.16 23.39 79.52 19.34 69 14.88 C46.85 6.57 23.37 3.69 0 1 C0 0.67 0 0.34 0 0 Z "
    fill="#F9F6F8"
    transform="translate(627,230)"
  />
  <path
    d="M0 0 C4.74 2.37 8.01 5.51 12 9 C33.41 24.63 56.26 35.57 82 42 C85.34 42.98 88.67 43.98 92 45 C92 45.33 92 45.66 92 46 C63.26 43.41 31.05 35.49 6 21 C3.69 20.01 1.38 19.02 -1 18 C-1.66 17.34 -2.32 16.68 -3 16 C-3 15.34 -3 14.68 -3 14 C-1.68 13.67 -0.36 13.34 1 13 C1 12.34 1 11.68 1 11 C1.99 11 2.98 11 4 11 C2 4 2 4 0 0 Z "
    fill="#9D4EE3"
    transform="translate(384,693)"
  />
  <path
    d="M0 0 C0.99 0.33 1.98 0.66 3 1 C1 4 1 4 -4 7 C-5.98 9.64 -7.96 12.28 -10 15 C-10.99 16.32 -11.98 17.64 -13 19 C-13.33 19.66 -13.66 20.32 -14 21 C-13.01 21 -12.02 21 -11 21 C-11 21.66 -11 22.32 -11 23 C-10.34 23.16 -10.34 23.16 -7 24 C-29.01 37.92 -51.82 49.35 -76 59 C-78.06 59.9 -80.13 60.79 -82.25 61.71 C-88 64 -88 64 -95 65 C-92 62 -92 62 -87.19 60.06 C-62.78 49.66 -40.2 35.1 -20 18 C-18.04 16.43 -16.08 14.87 -14.06 13.25 C-9.08 9.07 -4.52 4.67 0 0 Z "
    fill="#F5F0F4"
    transform="translate(840,891)"
  />
  <path
    d="M0 0 C2 3 2 3 4 12 C8.42 24.8 14.05 36.86 20 49 C13 53.67 13 53.67 9 55 C9 55.99 9 56.98 9 58 C8.34 58 7.68 58 7 58 C7 59.65 7 61.3 7 63 C6.67 63 6.34 63 6 63 C5.18 58.21 4.37 53.42 3.56 48.62 C3.11 45.96 2.66 43.29 2.19 40.54 C0.61 30.52 -0.12 21.02 -0.06 10.88 C-0.05 8.83 -0.04 6.79 -0.04 4.68 C-0.03 3.91 -0.03 3.91 0 0 Z "
    fill="#F3F2ED"
    transform="translate(256,609)"
  />
  <path
    d="M0 0 C7.54 3.77 12.27 25.7 15.19 33.38 C17 39 17 39 16 41 C15.34 40.67 14.68 40.34 14 40 C13.5 40.17 13.5 40.17 11 41 C11.02 44.02 11.05 47.05 11.07 50.16 C11.09 54.13 11.11 58.1 11.12 62.06 C11.14 64.05 11.16 66.05 11.18 68.1 C11.18 70.02 11.19 71.93 11.2 73.91 C11.21 75.67 11.22 77.44 11.23 79.26 C11 84 11 84 9 91 C8.34 91.16 8.34 91.16 5 92 C5 83 5 83 6 78 C6.12 71.06 6.19 64.13 6.19 57.19 C6.2 55.29 6.21 53.4 6.22 51.45 C6.24 35.85 4.71 21.18 1 6 C0.67 4.02 0.34 2.04 0 0 Z "
    fill="#E6E6E4"
    transform="translate(961,436)"
  />
  <path
    d="M0 0 C2 2 2 2 3 9 C3.33 9.33 3.66 9.66 4 10 C4.26 18.04 4.19 26.08 4.19 34.12 C4.2 36.4 4.21 38.67 4.22 41.02 C4.23 43.2 4.23 45.38 4.23 47.63 C4.23 49.64 4.24 51.65 4.24 53.72 C4 59 4 59 2 66 C2 69.07 2 72.15 2 75.31 C2 78.18 2 81.05 2 84 C1.67 84.33 1.67 84.33 0 86 C-0.16 87.65 -0.33 89.3 -0.5 91 C-1 96 -1 96 -3 98 C-3.66 97.67 -4.32 97.34 -5 97 C-4.35 89.36 -3.45 81.79 -2.45 74.18 C-0.73 59.44 -0.7 44.89 -0.88 30.06 C-0.92 24.99 -0.96 19.92 -0.99 14.85 C-1.02 12.64 -1.04 10.43 -1.07 8.16 C-1 3 -1 3 0 0 Z "
    fill="#0B0B0A"
    transform="translate(999,570)"
  />
  <path
    d="M0 0 C-0.66 0.99 -1.32 1.98 -2 3 C-3.65 3 -5.3 3 -7 3 C-7 4.32 -7 5.64 -7 7 C-13 10 -13 10 -15 10 C-15.33 10.99 -15.66 11.98 -16 13 C-26.5 18.25 -36.99 22.91 -48 27 C-50.1 27.91 -52.21 28.82 -54.38 29.75 C-60 32 -60 32 -67 33 C-64 30 -64 30 -59.19 28.06 C-43.16 21.23 -28.41 12.24 -13.99 2.52 C-8.4 -1.01 -6.66 -1.11 0 0 Z "
    fill="#F6F2F5"
    transform="translate(812,923)"
  />
  <path
    d="M0 0 C20.96 1.25 42.23 8.14 62 15 C62.16 15.33 62.16 15.33 63 17 C62.01 17 61.02 17 60 17 C60 17.66 60 18.32 60 19 C59.01 19 58.02 19 57 19 C57 18.34 57 17.68 57 17 C56.34 17.33 56.34 17.33 53 19 C51.68 18.67 50.36 18.34 49 18 C48.34 16.68 47.68 15.36 47 14 C45.02 14 43.04 14 41 14 C40.34 13.67 39.68 13.34 39 13 C38.67 14.98 38.34 16.96 38 19 C37.34 19 36.68 19 36 19 C36 19.66 36 20.32 36 21 C28.81 18.6 21.96 15.96 15 13 C15 12.01 15 11.02 15 10 C15.99 10.16 15.99 10.16 21 11 C21.33 11.66 21.66 12.32 22 13 C28 13 28 13 34 12 C34.33 10.68 34.66 9.36 35 8 C31.7 8.33 28.4 8.66 25 9 C24.34 7.68 23.68 6.36 23 5 C21.68 5.33 20.36 5.66 19 6 C19 5.34 19 4.68 19 4 C18.21 4.1 18.21 4.1 14.19 4.62 C9 5 9 5 6 3 C5.01 3 4.02 3 3 3 C3.33 2.34 3.66 1.68 4 1 C2.68 0.67 1.36 0.34 0 0 Z "
    fill="#F8F3F7"
    transform="translate(692,236)"
  />
  <path
    d="M0 0 C0.99 0.66 1.98 1.32 3 2 C3 3.98 3 5.96 3 8 C2.01 8 1.02 8 0 8 C0.66 10.31 1.32 12.62 2 15 C2 21 2 21 0 27 C0.28 31 0.6 35.01 1 39 C0.83 39.16 0.83 39.16 0 40 C-0.15 46.81 0.04 53.46 0.56 60.25 C0.71 62.15 0.85 64.04 1 66 C0.83 66.16 0.83 66.16 0 67 C1 71 1 71 4 74 C3.19 79.69 3.19 79.69 2 85 C-10.1 60.79 -7.22 25.27 0 0 Z "
    fill="#9D4CE2"
    transform="translate(271,501)"
  />
  <path
    d="M0 0 C0.33 0 0.66 0 1 0 C1.69 40.25 -2.1 78.65 -11 118 C-12.65 117.67 -14.3 117.34 -16 117 C-15.06 110.42 -13.65 104.2 -12.06 97.75 C-10.12 89.86 -8.44 82 -7 74 C-6.34 71.36 -5.68 68.72 -5 66 C-4.44 62.07 -3.92 58.13 -3.44 54.19 C-2.1 43.31 -2.1 43.31 -1 40 C-0.76 33.27 -0.58 26.55 -0.44 19.81 C-0.39 17.92 -0.35 16.02 -0.31 14.07 C-0.2 9.38 -0.1 4.69 0 0 Z "
    fill="#9D57E0"
    transform="translate(961,571)"
  />
  <path
    d="M0 0 C0.33 0.66 0.66 1.32 1 2 C1.66 2 2.32 2 3 2 C0.85 19.19 -5.44 35.66 -11 52 C-11.66 51.67 -12.32 51.34 -13 51 C-13 45.06 -13 39.12 -13 33 C-12.34 33 -11.68 33 -11 33 C-11 30.36 -11 27.72 -11 25 C-10.34 23.51 -10.34 23.51 -7 16 C-6.13 13.36 -5.27 10.72 -4.38 8 C-2 1 -2 1 0 0 Z "
    fill="#A559EC"
    transform="translate(946,687)"
  />
  <path
    d="M0 0 C9.54 1.12 19.02 2.47 28.5 4 C40.97 5.95 53.41 7.14 66 8 C66 8.33 66 8.66 66 9 C58.12 11.63 52.64 10.96 44.38 9.94 C36 9 36 9 31 10 C30.01 9.84 30.01 9.84 25 9 C25 8.34 25 7.68 25 7 C20 10 20 10 16 15 C1.12 2.25 1.12 2.25 0 0 Z "
    fill="#0B0A0C"
    transform="translate(442,803)"
  />
  <path
    d="M0 0 C0.66 0 1.32 0 2 0 C4.17 10.12 5.13 19.87 5.13 30.21 C5.13 32.09 5.14 33.98 5.14 35.92 C5.13 37.86 5.13 39.81 5.12 41.81 C5.13 43.78 5.13 45.74 5.14 47.76 C5.12 65.75 5.12 65.75 2 72 C1.34 72 0.68 72 0 72 C-0.03 63.27 -0.05 54.54 -0.06 45.81 C-0.07 43.33 -0.08 40.84 -0.09 38.28 C-0.09 35.9 -0.09 33.53 -0.1 31.08 C-0.1 28.89 -0.11 26.69 -0.11 24.43 C0.07 15.87 0.07 15.87 2 12 C1.67 11.01 1.34 10.02 1 9 C0.67 9.17 0.67 9.17 -1 10 C-0.67 6.7 -0.34 3.4 0 0 Z "
    fill="#0F0E0E"
    transform="translate(963,451)"
  />
  <path
    d="M0 0 C0.33 0.66 0.66 1.32 1 2 C7.65 2.83 13.89 3.18 20.58 3.28 C22.79 3.32 25 3.36 27.28 3.39 C31.94 3.47 36.6 3.54 41.27 3.61 C43.47 3.64 45.68 3.68 47.95 3.72 C49.98 3.75 52 3.78 54.08 3.81 C59 4 59 4 63 5 C65.97 5 68.94 5 72 5 C72 5.33 72 5.66 72 6 C42.35 9.86 12.63 8.41 -17 5 C-17 4.67 -17 4.34 -17 4 C-15.12 3.71 -13.25 3.42 -11.31 3.12 C-5 2 -5 2 0 0 Z "
    fill="#8E45CA"
    transform="translate(594,969)"
  />
  <path
    d="M0 0 C3.66 1.48 7.28 3.06 10.88 4.69 C25.6 11.19 40.53 15.65 56 20 C56 20.33 56 20.66 56 21 C36.25 19.22 17.77 14.26 -1 8 C-1.33 5.69 -1.66 3.38 -2 1 C-1.34 0.67 -0.68 0.34 0 0 Z "
    fill="#A153E3"
    transform="translate(420,718)"
  />
  <path
    d="M0 0 C5.98 5.98 6.8 12.96 9 21 C9.66 23.31 10.32 25.62 11 28 C10.67 29.32 10.34 30.64 10 32 C8 30 8 30 7 24 C3.37 23.67 -0.26 23.34 -4 23 C-4 16.73 -4 10.46 -4 4 C-2.68 3.67 -1.36 3.34 0 3 C0 2.01 0 1.02 0 0 Z "
    fill="#E8E7E2"
    transform="translate(975,473)"
  />
  <path
    d="M0 0 C0.66 0.33 1.32 0.66 2 1 C2.16 1.66 2.16 1.66 3 5 C1.02 5.66 -0.96 6.32 -3 7 C-3 7.66 -3 8.32 -3 9 C-4.65 9.33 -6.3 9.66 -8 10 C-8.33 10.66 -8.66 11.32 -9 12 C-14 14 -14 14 -17 14 C-17 14.66 -17 15.32 -17 16 C-18.32 16 -19.64 16 -21 16 C-21.33 16.99 -21.66 17.98 -22 19 C-23.32 19 -24.64 19 -26 19 C-26.33 19.99 -26.66 20.98 -27 22 C-30 24 -30 24 -35 24 C-35.66 24.99 -36.32 25.98 -37 27 C-38.32 26.67 -39.64 26.34 -41 26 C-42.32 26.33 -43.64 26.66 -45 27 C-45.66 26.34 -46.32 25.68 -47 25 C-45.4 24.25 -43.81 23.5 -42.16 22.73 C-9.89 7.42 -9.89 7.42 0 0 Z "
    fill="#171716"
    transform="translate(826,918)"
  />
  <path
    d="M0 0 C2 3 2 3 4 12 C5.07 14.72 6.14 17.45 7.25 20.25 C10 28 10 28 8 33 C7.34 33 6.68 33 6 33 C5.67 35.31 5.34 37.62 5 40 C4.83 40.83 4.83 40.83 4 45 C3.67 45 3.34 45 3 45 C0.62 29.82 -0.38 15.36 0 0 Z "
    fill="#D5D4D4"
    transform="translate(256,609)"
  />
  <path
    d="M0 0 C0.33 0 0.66 0 1 0 C1.38 2.29 1.75 4.59 2.14 6.95 C4.84 23.18 7.78 39.1 12 55 C12 55.99 12 56.98 12 58 C11.34 58 10.68 58 10 58 C10 56.68 10 55.36 10 54 C9.34 54 8.68 54 8 54 C5 45 5 45 5 37 C4.34 36.01 3.68 35.02 3 34 C2.34 31.69 1.68 29.38 1 27 C0.67 26.67 0.34 26.34 0 26 C-0.04 21.33 -0.04 16.67 0 12 C-0.66 12 -1.32 12 -2 12 C-3 5 -3 5 0 0 Z "
    fill="#131212"
    transform="translate(257,642)"
  />
  <path
    d="M0 0 C2 4 2 4 1 8 C-1 12 -1 12 -4 17 C-4.99 17 -5.98 17 -7 17 C-7 18.32 -7 19.64 -7 21 C-7.66 21 -8.32 21 -9 21 C-9 22.32 -9 23.64 -9 25 C-10.32 25.33 -11.64 25.66 -13 26 C-13.33 28.31 -13.66 30.62 -14 33 C-14.66 33 -15.32 33 -16 33 C-16.33 33.99 -16.66 34.98 -17 36 C-17.66 36 -18.32 36 -19 36 C-19 36.99 -19 37.98 -19 39 C-19.66 39 -20.32 39 -21 39 C-21 39.99 -21 40.98 -21 42 C-21.99 42 -22.98 42 -24 42 C-24.16 41.5 -24.16 41.5 -25 39 C-23.13 35.97 -21.13 33.03 -19.06 30.12 C-12.21 20.34 -5.93 10.37 0 0 Z "
    fill="#121212"
    transform="translate(951,787)"
  />
  <path
    d="M0 0 C1.23 7.41 1.39 12.84 -1 20 C-1 23.3 -1 26.6 -1 30 C-1.66 30.66 -2.32 31.32 -3 32 C-3.41 35.99 -3.74 39.99 -4 44 C-4.5 44.16 -4.5 44.16 -7 45 C-7 45.99 -7 46.98 -7 48 C-7.66 48 -8.32 48 -9 48 C-9.33 48.66 -9.66 49.32 -10 50 C-8.64 39.16 -6.87 28.39 -5.16 17.6 C-4.32 12.08 -3.62 6.54 -3 1 C-1 0 -1 0 0 0 Z "
    fill="#F3E8F7"
    transform="translate(963,623)"
  />
  <path
    d="M0 0 C0.33 0 0.66 0 1 0 C1.98 8.8 2.1 17.21 2.06 26.06 C2.05 29.04 2.04 32.03 2.04 35.1 C2.02 37.38 2.01 39.65 2 42 C1.67 42 1.34 42 1 42 C0.67 38.04 0.34 34.08 0 30 C-0.99 30.33 -1.98 30.66 -3 31 C-3 30.34 -3 29.68 -3 29 C-4.65 29 -6.3 29 -8 29 C-6.14 21.09 -3.79 13.62 -1 6 C-0.67 4.02 -0.34 2.04 0 0 Z "
    fill="#572F9E"
    transform="translate(959,558)"
  />
  <path
    d="M0 0 C0 0.99 0 1.98 0 3 C5.61 3.33 11.22 3.66 17 4 C17 4.66 17 5.32 17 6 C21.29 6 25.58 6 30 6 C29.34 7.32 28.68 8.64 28 10 C24.95 9.57 21.89 9.13 18.75 8.69 C5.2 6.83 -8.39 5.4 -22 4 C-21.34 3.01 -20.68 2.02 -20 1 C-13.21 0.03 -6.84 -0.07 0 0 Z "
    fill="#121212"
    transform="translate(672,227)"
  />
  <path
    d="M0 0 C1.32 0.33 2.64 0.66 4 1 C-1.34 8.12 -6.96 14.48 -13 21 C-14.65 22.98 -16.3 24.96 -18 27 C-22 31 -26 35 -30 39 C-30.66 38.01 -31.32 37.02 -32 36 C-31.34 36 -30.68 36 -30 36 C-30 35.34 -30 34.68 -30 34 C-29.34 34 -28.68 34 -28 34 C-27.34 32.02 -26.68 30.04 -26 28 C-25.01 26.85 -25.01 26.85 -20 21 C-19.01 21 -18.02 21 -17 21 C-16.34 19.68 -15.68 18.36 -15 17 C-14.01 16.67 -13.02 16.34 -12 16 C-12 15.34 -12 14.68 -12 14 C-11.01 14 -10.02 14 -9 14 C-9 13.01 -9 12.02 -9 11 C-7.68 9.68 -6.36 8.36 -5 7 C-4.34 5.35 -3.68 3.7 -3 2 C-2.01 1.34 -1.02 0.68 0 0 Z "
    fill="#111111"
    transform="translate(865,626)"
  />
  <path
    d="M0 0 C5.74 2.3 11.24 4.95 16.81 7.62 C18.9 8.63 20.99 9.63 23.14 10.66 C24.75 11.43 26.35 12.21 28 13 C28 13.66 28 14.32 28 15 C28.66 15.33 29.32 15.66 30 16 C24 15 24 15 18 12 C16.35 12 14.7 12 13 12 C12.67 13.65 12.34 15.3 12 17 C12.99 17.33 13.98 17.66 15 18 C14.67 20.31 14.34 22.62 14 25 C10.31 20.39 7.6 15.96 4.75 10.81 C3.86 9.21 2.97 7.61 2.05 5.96 C0 2 0 2 0 0 Z "
    fill="#5E35AD"
    transform="translate(349,769)"
  />
  <path
    d="M0 0 C8.5 1.7 13.1 8.88 19 15 C18.34 15.66 17.68 16.32 17 17 C14.69 14.69 12.38 12.38 10 10 C8.35 12.97 6.7 15.94 5 19 C1.38 14.47 -1.82 9.84 -5 5 C-3.35 4.01 -1.7 3.02 0 2 C0 1.34 0 0.68 0 0 Z "
    fill="#603BAE"
    transform="translate(846,346)"
  />
  <path
    d="M0 0 C0.83 0.16 0.83 0.16 5 1 C2.36 6.29 -5.84 7.97 -11 10 C-13.97 11.32 -16.94 12.64 -20 14 C-36.33 20.44 -36.33 20.44 -44 23 C-44 22.34 -44 21.68 -44 21 C-42.35 20.67 -40.7 20.34 -39 20 C-39 19.34 -39 18.68 -39 18 C-37.35 18 -35.7 18 -34 18 C-34 17.01 -34 16.02 -34 15 C-32.02 14.34 -30.04 13.68 -28 13 C-26.68 11.68 -25.36 10.36 -24 9 C-21.36 9 -18.72 9 -16 9 C-16 8.34 -16 7.68 -16 7 C-14.35 7 -12.7 7 -11 7 C-10.67 6.01 -10.34 5.02 -10 4 C-8.68 4 -7.36 4 -6 4 C-6 3.34 -6 2.68 -6 2 C-4.02 2 -2.04 2 0 2 C0 1.34 0 0.68 0 0 Z "
    fill="#0F0F0F"
    transform="translate(738,726)"
  />
  <path
    d="M0 0 C10.05 12.56 16.13 28.51 20 44 C19.34 44.99 18.68 45.98 18 47 C17.34 46.67 16.68 46.34 16 46 C16 43.69 16 41.38 16 39 C15.01 39 14.02 39 13 39 C13 38.01 13 37.02 13 36 C11.68 35.67 10.36 35.34 9 35 C9.66 32.36 10.32 29.72 11 27 C10.34 27 9.68 27 9 27 C9 25.35 9 23.7 9 22 C8.01 21.67 7.02 21.34 6 21 C6.66 21 7.32 21 8 21 C7.34 19.82 7.34 19.82 4 13.88 C0 6 0 6 0 0 Z "
    fill="#F3F2EF"
    transform="translate(918,381)"
  />
  <path
    d="M0 0 C35.31 10.31 35.31 10.31 41.06 16.06 C39.41 16.39 37.76 16.72 36.06 17.06 C35.9 16.73 35.9 16.73 35.06 15.06 C33.08 15.06 31.1 15.06 29.06 15.06 C29.06 14.4 29.06 13.74 29.06 13.06 C27.41 13.06 25.76 13.06 24.06 13.06 C23.73 12.73 23.4 12.4 23.06 12.06 C20.75 11.73 18.44 11.4 16.06 11.06 C16.06 10.07 16.06 9.08 16.06 8.06 C13.75 8.06 11.44 8.06 9.06 8.06 C9.06 7.73 9.06 7.4 9.06 7.06 C6.42 6.4 3.78 5.74 1.06 5.06 C1.06 4.4 1.06 3.74 1.06 3.06 C-0.42 2.73 -0.42 2.73 -7.94 1.06 C-4.94 -0.94 -4.94 -0.94 0 0 Z "
    fill="#060209"
    transform="translate(696.9375,332.9375)"
  />
  <path
    d="M0 0 C1.69 0.27 3.38 0.54 5.12 0.81 C22.39 3.42 39.6 5.53 57 7 C57 7.33 57 7.66 57 8 C51.27 9.15 46.03 9.1 40.19 9.06 C38.1 9.05 36.01 9.04 33.86 9.04 C33.05 9.03 33.05 9.03 29 9 C29 8.34 29 7.68 29 7 C27.79 7.02 27.79 7.02 21.69 7.12 C14 7 14 7 11 5 C7.34 4.28 3.68 3.61 0 3 C0 2.01 0 1.02 0 0 Z "
    fill="#08030D"
    transform="translate(552,969)"
  />
  <path
    d="M0 0 C0.66 0 1.32 0 2 0 C2.82 1.61 3.64 3.21 4.49 4.87 C10.99 17.48 17.67 29.86 25 42 C24.01 42.66 23.02 43.32 22 44 C22 43.34 22 42.68 22 42 C21.01 42 20.02 42 19 42 C19 40.35 19 38.7 19 37 C18.34 37 17.68 37 17 37 C17 36.01 17 35.02 17 34 C16.34 34 15.68 34 15 34 C14.67 32.68 14.34 31.36 14 30 C13.34 29.67 12.68 29.34 12 29 C11.01 26.36 10.02 23.72 9 21 C8.34 20.67 7.68 20.34 7 20 C6.34 17.36 5.68 14.72 5 12 C4.01 12 3.02 12 2 12 C0 4 0 4 0 0 Z "
    fill="#0F0617"
    transform="translate(292,765)"
  />
  <path
    d="M0 0 C0.5 0.33 0.5 0.33 3 2 C3.36 8.3 3.56 14.51 3.62 20.81 C3.79 31.91 3.99 42.94 5 54 C4.67 54.16 4.67 54.16 3 55 C-0.69 43.58 -0.34 32.6 -0.19 20.75 C-0.17 18.75 -0.16 16.76 -0.15 14.7 C-0.11 9.8 -0.06 4.9 0 0 Z "
    fill="#0A050D"
    transform="translate(343,576)"
  />
  <path
    d="M0 0 C1 4 1 4 2 11 C1.67 11.16 1.67 11.16 0 12 C-0.66 13.65 -1.32 15.3 -2 17 C-2.66 17 -3.32 17 -4 17 C-4 18.98 -4 20.96 -4 23 C-4.99 23.99 -5.98 24.98 -7 26 C-7.66 28.31 -8.32 30.62 -9 33 C-9.33 33.16 -9.33 33.16 -11 34 C-12.32 36.64 -13.64 39.28 -15 42 C-15.66 42 -16.32 42 -17 42 C-17.33 43.32 -17.66 44.64 -18 46 C-18.66 46 -19.32 46 -20 46 C-17.89 39.68 -15.18 34.04 -12.25 28.06 C-7.78 18.83 -3.64 9.6 0 0 Z "
    fill="#10100F"
    transform="translate(975,735)"
  />
  <path
    d="M0 0 C0.33 0 0.66 0 1 0 C3.4 11.88 3.27 20.6 -1 32 C-1.5 32.16 -1.5 32.16 -4 33 C-4.33 37.29 -4.66 41.58 -5 46 C-5.66 45.67 -6.32 45.34 -7 45 C-7 27 -7 27 -4 24 C-3.27 19.99 -2.59 15.96 -1.94 11.94 C-1.58 9.72 -1.21 7.5 -0.84 5.21 C-0.7 4.35 -0.7 4.35 0 0 Z "
    fill="#EEECEE"
    transform="translate(967,522)"
  />
  <path
    d="M0 0 C0.66 0.33 1.32 0.66 2 1 C0 5 0 5 -2 8 C-2.99 8 -3.98 8 -5 8 C-5 8.66 -5 9.32 -5 10 C-5.66 10 -6.32 10 -7 10 C-7.66 11.32 -8.32 12.64 -9 14 C-9.99 14.33 -10.98 14.66 -12 15 C-12 15.66 -12 16.32 -12 17 C-12.99 17 -13.98 17 -15 17 C-15 17.99 -15 18.98 -15 20 C-15.66 20 -16.32 20 -17 20 C-17.66 21.98 -18.32 23.96 -19 26 C-19.99 26 -20.98 26 -22 26 C-22.66 27.32 -23.32 28.64 -24 30 C-25.65 30.66 -27.3 31.32 -29 32 C-29.66 31.34 -30.32 30.68 -31 30 C-26.96 25.93 -22.92 21.87 -18.88 17.81 C-16.62 15.55 -14.37 13.29 -12.05 10.96 C-6 5 -6 5 0 0 Z "
    fill="#09020C"
    transform="translate(444,387)"
  />
  <path
    d="M0 0 C0.16 0.33 0.16 0.33 1 2 C1.66 2.33 2.32 2.66 3 3 C0.03 3.8 -2.94 4.61 -6 5.44 C-18.27 8.93 -30.12 13.37 -42 18 C-42 17.01 -42 16.02 -42 15 C-40.02 14.34 -38.04 13.68 -36 13 C-35.34 11.68 -34.68 10.36 -34 9 C-29 7 -29 7 -22 8 C-21.67 7.01 -21.34 6.02 -21 5 C-18.36 5 -15.72 5 -13 5 C-13 4.34 -13 3.68 -13 3 C-8.71 2.01 -4.42 1.02 0 0 Z "
    fill="#08030A"
    transform="translate(530,240)"
  />
  <path
    d="M0 0 C0 0.66 0 1.32 0 2 C8 4 8 4 14 4 C13.67 4.66 13.34 5.32 13 6 C14.98 6.66 16.96 7.32 19 8 C19 8.66 19 9.32 19 10 C20.98 10.33 22.96 10.66 25 11 C16.03 13.24 3.9 7.54 -5 5 C-9.99 4.29 -14.99 3.62 -20 3 C-19.34 2.01 -18.68 1.02 -18 0 C-5.14 -2.57 -5.14 -2.57 0 0 Z "
    fill="#9A4CDB"
    transform="translate(676,322)"
  />
  <path
    d="M0 0 C0.33 0 0.66 0 1 0 C1 2.97 1 5.94 1 9 C1.66 9.16 1.66 9.16 5 10 C5 17.92 5 25.84 5 34 C4.67 34 4.34 34 4 34 C3.67 32.35 3.34 30.7 3 29 C3 31.97 3 34.94 3 38 C2.67 38 2.34 38 2 38 C1.67 42.29 1.34 46.58 1 51 C0.67 51 0.34 51 0 51 C0 34.17 0 17.34 0 0 Z "
    fill="#FCFBFA"
    transform="translate(962,569)"
  />
  <path
    d="M0 0 C-0.33 0.99 -0.66 1.98 -1 3 C-3.97 3.66 -6.94 4.32 -10 5 C-10.66 5.66 -11.32 6.32 -12 7 C-16.67 7.08 -21.33 7.08 -26 7 C-26.33 7.99 -26.66 8.98 -27 10 C-36 10 -36 10 -41 9 C-40.67 8.01 -40.34 7.02 -40 6 C-33.9 5 -27.79 4 -21.69 3 C-19.95 2.71 -18.21 2.43 -16.42 2.13 C-3.34 0 -3.34 0 0 0 Z "
    fill="#E7E7E5"
    transform="translate(632,768)"
  />
  <path
    d="M0 0 C0.33 0 0.66 0 1 0 C1.33 5.28 1.66 10.56 2 16 C2.66 15.67 3.32 15.34 4 15 C6 31.38 6 31.38 6 37 C5.83 37.16 5.83 37.16 5 38 C6 42 6 42 9 45 C8.19 50.69 8.19 50.69 7 56 C-1.45 39.1 -0.43 18.41 0 0 Z "
    fill="#9848DA"
    transform="translate(266,530)"
  />
  <path
    d="M0 0 C5.67 5.67 11.33 11.33 17 17 C16.34 17.66 15.68 18.32 15 19 C13.68 19 12.36 19 11 19 C10.67 19.99 10.34 20.98 10 22 C8.68 21.67 7.36 21.34 6 21 C2.68 14.16 1.15 7.48 0 0 Z "
    fill="#A255E3"
    transform="translate(272,707)"
  />
  <path
    d="M0 0 C0.66 0.33 1.32 0.66 2 1 C2.66 2.98 3.32 4.96 4 7 C4.99 8.32 5.98 9.64 7 11 C6.34 13.97 5.68 16.94 5 20 C5.99 20 6.98 20 8 20 C7.98 21.75 7.96 23.51 7.94 25.31 C8 31 8 31 9 34 C9 37.3 9 40.6 9 44 C8.34 44.66 7.68 45.32 7 46 C6.67 44.07 6.35 42.14 6.01 40.15 C5.79 38.87 5.79 38.87 4.69 32.38 C4.26 29.85 3.83 27.32 3.39 24.71 C2.45 19.53 1.41 14.37 0.27 9.23 C-1 3 -1 3 0 0 Z "
    fill="#0C0B0B"
    transform="translate(988,505)"
  />
  <path
    d="M0 0 C1.17 -0 1.17 -0 7.09 -0 C9.54 -0 11.98 0 14.5 0.01 C16.95 0 19.39 0 21.9 -0 C24.25 -0 26.59 -0 29 0 C30.07 0 30.07 0 35.5 0 C41.07 0.13 41.07 0.13 48.07 1.13 C48.07 1.46 48.07 1.79 48.07 2.13 C39.31 3.23 30.89 3.23 22.07 3.2 C18.89 3.19 15.71 3.18 12.44 3.17 C10.01 3.16 7.57 3.14 5.07 3.13 C5.07 2.8 5.07 2.47 5.07 2.13 C-2.52 2.13 -10.11 2.13 -17.93 2.13 C-17.93 1.8 -17.93 1.47 -17.93 1.13 C-11.81 0.11 -6.21 0 0 0 Z "
    fill="#120719"
    transform="translate(607.93359375,322.8671875)"
  />
  <path
    d="M0 0 C0.33 0 0.66 0 1 0 C1 1.98 1 3.96 1 6 C0.34 6 -0.32 6 -1 6 C-1.33 7.32 -1.66 8.64 -2 10 C-2.99 11.65 -3.98 13.3 -5 15 C-5.99 15 -6.98 15 -8 15 C-8 15.99 -8 16.98 -8 18 C-8.99 18.66 -9.98 19.32 -11 20 C-11.66 21.98 -12.32 23.96 -13 26 C-13.66 26 -14.32 26 -15 26 C-16.32 27.65 -17.64 29.3 -19 31 C-21.31 31.33 -23.62 31.66 -26 32 C-22.06 27.4 -18.1 22.82 -14.12 18.25 C-9.11 12.32 -4.52 6.31 0 0 Z "
    fill="#ECECE9"
    transform="translate(876,617)"
  />
  <path
    d="M0 0 C1.65 0 3.3 0 5 0 C5 1.98 5 3.96 5 6 C5.66 6 6.32 6 7 6 C7.99 10.62 8.98 15.24 10 20 C10.99 20 11.98 20 13 20 C13 22.31 13 24.62 13 27 C13.33 28.98 13.66 30.96 14 33 C13.84 33.17 13.84 33.17 13 34 C13 36.97 13 39.94 13 43 C9.34 37.51 9.18 30.4 8 24 C6 16.35 3.06 9.28 0 2 C0 1.34 0 0.68 0 0 Z "
    fill="#1E1E1D"
    transform="translate(932,408)"
  />
  <path
    d="M0 0 C2.31 0 4.62 0 7 0 C3.36 3.64 -0.6 6.19 -4.88 9.06 C-12.81 14.44 -20.45 20.08 -28 26 C-28.99 26.66 -29.98 27.32 -31 28 C-30.67 26.02 -30.34 24.04 -30 22 C-29.01 22 -28.02 22 -27 22 C-27 21.34 -27 20.68 -27 20 C-26.01 20 -25.02 20 -24 20 C-24 19.34 -24 18.68 -24 18 C-23.34 18 -22.68 18 -22 18 C-21.67 17.01 -21.34 16.02 -21 15 C-19.68 15 -18.36 15 -17 15 C-17 14.01 -17 13.02 -17 12 C-14.69 11.34 -12.38 10.68 -10 10 C-9.67 9.01 -9.34 8.02 -9 7 C-8.34 7 -7.68 7 -7 7 C-6.34 5.68 -5.68 4.36 -5 3 C-3.35 2.67 -1.7 2.34 0 2 C0 1.34 0 0.68 0 0 Z "
    fill="#0A030E"
    transform="translate(424,287)"
  />
  <path
    d="M0 0 C1.65 0 3.3 0 5 0 C5 0.66 5 1.32 5 2 C6.32 1.34 7.64 0.68 9 0 C10.01 11.76 10.68 22.44 8 34 C7.67 34 7.34 34 7 34 C7 25 7 25 8 23 C8 20.69 8 18.38 8 16 C6.02 14.68 4.04 13.36 2 12 C-1 6 -1 6 -1 1 C-0.67 0.67 -0.34 0.34 0 0 Z "
    fill="#6235B0"
    transform="translate(951,587)"
  />
  <path
    d="M0 0 C0.33 0.66 0.66 1.32 1 2 C1.66 2 2.32 2 3 2 C2 10 2 10 0 18 C-1.65 18.66 -3.3 19.32 -5 20 C-5.33 21.98 -5.66 23.96 -6 26 C-7.65 26.33 -9.3 26.66 -11 27 C-9 20 -9 20 -6 12 C-5.32 10.04 -4.64 8.08 -3.94 6.06 C-2 1 -2 1 0 0 Z "
    fill="#9E57E4"
    transform="translate(946,687)"
  />
  <path
    d="M0 0 C6.31 0 11.88 5.91 16.75 9.56 C24.16 14.82 31.84 19.52 39.6 24.24 C44 27 44 27 46 29 C43.69 29 41.38 29 39 29 C39 28.01 39 27.02 39 26 C37.35 26.33 35.7 26.66 34 27 C34 25.68 34 24.36 34 23 C33.01 23 32.02 23 31 23 C31 22.34 31 21.68 31 21 C29.35 20.67 27.7 20.34 26 20 C26 19.34 26 18.68 26 18 C24.35 17.67 22.7 17.34 21 17 C21 16.34 21 15.68 21 15 C20.01 14.67 19.02 14.34 18 14 C16.02 13.34 14.04 12.68 12 12 C12 10.68 12 9.36 12 8 C11.01 8.33 10.02 8.66 9 9 C9 8.34 9 7.68 9 7 C6.69 6.34 4.38 5.68 2 5 C1.34 3.35 0.68 1.7 0 0 Z "
    fill="#0D0513"
    transform="translate(400,900)"
  />
  <path
    d="M0 0 C0.16 0.5 0.16 0.5 1 3 C-0.65 4.65 -2.3 6.3 -4 8 C-4.66 9.65 -5.32 11.3 -6 13 C-9.88 17.12 -13.87 21.13 -18 25 C-18.99 25 -19.98 25 -21 25 C-21.33 25.83 -21.33 25.83 -23 30 C-23.66 30.99 -24.32 31.98 -25 33 C-25.66 33 -26.32 33 -27 33 C-27 33.66 -27 34.32 -27 35 C-27.99 35 -28.98 35 -30 35 C-30 35.66 -30 36.32 -30 37 C-30.66 37 -31.32 37 -32 37 C-32.16 36.5 -32.16 36.5 -33 34 C-28.09 29.09 -23.21 24.56 -18 20 C-11.57 13.57 -5.67 7.09 0 0 Z "
    fill="#100F0F"
    transform="translate(908,848)"
  />
  <path
    d="M0 0 C0 0.66 0 1.32 0 2 C-4.62 2 -9.24 2 -14 2 C-14.33 2.99 -14.66 3.98 -15 5 C-16.77 4.96 -18.55 4.92 -20.38 4.88 C-26 5 -26 5 -28 7 C-31.68 6.43 -35.35 5.76 -39 5 C-29.89 0.45 -9.05 -6.03 0 0 Z "
    fill="#0F0716"
    transform="translate(592,327)"
  />
  <path
    d="M0 0 C0.99 0 1.98 0 3 0 C5.11 4.33 7.21 8.67 9.31 13 C10.48 15.41 11.66 17.83 12.86 20.31 C19 33.4 19 33.4 19 38 C18.01 38 17.02 38 16 38 C16 37.01 16 36.02 16 35 C15.34 35 14.68 35 14 35 C13.67 33.02 13.34 31.04 13 29 C12.34 27.68 11.68 26.36 11 25 C10.01 22.36 9.02 19.72 8 17 C6.68 16.34 5.36 15.68 4 15 C4 13.35 4 11.7 4 10 C3.34 10 2.68 10 2 10 C1 7 1 7 2 3 C1.34 3 0.68 3 0 3 C0 2.01 0 1.02 0 0 Z "
    fill="#0E0517"
    transform="translate(866,471)"
  />
  <path
    d="M0 0 C2 2 2 2 3 10 C0.56 16.5 0.56 16.5 -2 22 C-2.99 22 -3.98 22 -5 22 C-5 23.98 -5 25.96 -5 28 C-5.99 28 -6.98 28 -8 28 C-8.33 29.32 -8.66 30.64 -9 32 C-9.99 32 -10.98 32 -12 32 C-9 23 -9 23 -5 15 C-3.96 11.68 -2.96 8.35 -2 5 C-1.34 3.35 -0.68 1.7 0 0 Z "
    fill="#10100F"
    transform="translate(937,565)"
  />
  <path
    d="M0 0 C0.99 0 1.98 0 3 0 C3.33 0.66 3.66 1.32 4 2 C4.99 2.33 5.98 2.66 7 3 C7 3.66 7 4.32 7 5 C7.99 5.16 7.99 5.16 13 6 C13.66 6.33 14.32 6.66 15 7 C15 7.99 15 8.98 15 10 C16.65 10 18.3 10 20 10 C20 10.66 20 11.32 20 12 C21.65 12 23.3 12 25 12 C25 12.66 25 13.32 25 14 C25.82 14.16 25.82 14.16 30 15 C30 15.66 30 16.32 30 17 C30.66 17 31.32 17 32 17 C32.17 17.66 32.17 17.66 33 21 C20.32 16.77 8.92 9.6 -2 2 C-1.34 1.34 -0.68 0.68 0 0 Z "
    fill="#0F0818"
    transform="translate(402,704)"
  />
  <path
    d="M0 0 C0.33 0 0.66 0 1 0 C1.62 46.32 1.62 46.32 -4 66 C-6 63 -6 63 -6 56 C-5.34 56 -4.68 56 -4 56 C-4 54.35 -4 52.7 -4 51 C-3.34 51 -2.68 51 -2 51 C-2.33 49.85 -2.33 49.85 -4 44 C-4 34 -4 34 -3 32 C-2.34 32 -1.68 32 -1 32 C-0.67 21.44 -0.34 10.88 0 0 Z "
    fill="#C9C9C6"
    transform="translate(948,476)"
  />
  <path
    d="M0 0 C0.33 1.32 0.66 2.64 1 4 C0.34 4 -0.32 4 -1 4 C-0.67 5.32 -0.34 6.64 0 8 C0.04 13.33 0.04 18.67 0 24 C-2.31 24.33 -4.62 24.66 -7 25 C-8.32 25.33 -9.64 25.66 -11 26 C-3.5 3.5 -3.5 3.5 0 0 Z "
    fill="#9B53E5"
    transform="translate(934,716)"
  />
  <path
    d="M0 0 C15.18 0 30.36 0 46 0 C43 3 43 3 34.61 3.29 C31.18 3.27 27.75 3.24 24.31 3.19 C22.56 3.17 20.81 3.16 19.01 3.15 C14.67 3.11 10.34 3.06 6 3 C6 2.34 6 1.68 6 1 C4.02 1 2.04 1 0 1 C0 0.67 0 0.34 0 0 Z "
    fill="#040206"
    transform="translate(603,978)"
  />
  <path
    d="M0 0 C0.33 0 0.66 0 1 0 C1.33 6.6 1.66 13.2 2 20 C2.33 20 2.66 20 3 20 C3.22 23.52 3.43 27.04 3.62 30.56 C3.74 32.52 3.86 34.48 3.98 36.5 C4 42 4 42 2 49 C1.34 49.16 1.34 49.16 -2 50 C-2 41 -2 41 -1 36 C-0.77 29.9 -0.59 23.79 -0.44 17.69 C-0.35 14.39 -0.27 11.1 -0.18 7.7 C-0.12 5.16 -0.06 2.62 0 0 Z "
    fill="#D1D0CF"
    transform="translate(968,478)"
  />
  <path
    d="M0 0 C0.33 0 0.66 0 1 0 C1.03 6.71 1.05 13.42 1.06 20.12 C1.07 22.03 1.08 23.94 1.09 25.9 C1.11 40.32 1.11 40.32 0 47 C-0.33 47 -0.66 47 -1 47 C-4.29 32.2 -3.27 17.06 -2 2 C-1.34 1.34 -0.68 0.68 0 0 Z "
    fill="#6747AB"
    transform="translate(916,473)"
  />
  <path
    d="M0 0 C0.99 1.32 1.98 2.64 3 4 C2.34 4 1.68 4 1 4 C0.67 5.65 0.34 7.3 0 9 C-1.32 9.99 -2.64 10.98 -4 12 C-4 11.34 -4 10.68 -4 10 C-4.66 10 -5.32 10 -6 10 C-6.33 12.31 -6.66 14.62 -7 17 C-7.33 17.33 -7.66 17.66 -8 18 C-9.98 18 -11.96 18 -14 18 C-14.66 19.32 -15.32 20.64 -16 22 C-17.32 22.99 -18.64 23.98 -20 25 C-20.99 24.67 -21.98 24.34 -23 24 C-20.03 21.03 -17.06 18.07 -14.08 15.12 C-12.67 13.72 -11.26 12.32 -9.81 10.88 C-8.4 9.47 -6.98 8.06 -5.52 6.62 C-2 3 -2 3 0 0 Z "
    fill="#532FA0"
    transform="translate(827,786)"
  />
  <path
    d="M0 0 C2.97 0 5.94 0 9 0 C9.16 0.33 9.16 0.33 10 2 C11.32 2.66 12.64 3.32 14 4 C10.17 4.51 6.33 5 2.5 5.5 C0.37 5.78 -1.77 6.06 -3.97 6.34 C-10.9 7.1 -17.12 7.15 -24 6 C-19.93 1.93 -12.01 3 -6.5 2.56 C-2 2 -2 2 0 0 Z "
    fill="#0C0C0C"
    transform="translate(591,769)"
  />
  <path
    d="M0 0 C0.66 0.33 1.32 0.66 2 1 C2 2.32 2 3.64 2 5 C-2 7 -2 7 -5 7 C-5 7.99 -5 8.98 -5 10 C-6.98 10.99 -8.96 11.98 -11 13 C-11.99 13.99 -12.98 14.98 -14 16 C-15.65 15.67 -17.3 15.34 -19 15 C-19 15.66 -19 16.32 -19 17 C-19.99 17 -20.98 17 -22 17 C-22 16.34 -22 15.68 -22 15 C-22.66 14.67 -23.32 14.34 -24 14 C-22.35 13.07 -20.7 12.15 -19 11.19 C-16.88 9.99 -14.75 8.8 -12.56 7.56 C-11.5 6.97 -11.5 6.97 -6.13 3.94 C-1 1 -1 1 0 0 Z "
    fill="#E9E8E6"
    transform="translate(775,709)"
  />
  <path
    d="M0 0 C-0.33 0.99 -0.66 1.98 -1 3 C-2.65 3 -4.3 3 -6 3 C-6 3.66 -6 4.32 -6 5 C-7.65 5 -9.3 5 -11 5 C-11.33 5.99 -11.66 6.98 -12 8 C-18 12 -18 12 -24 11 C-24 11.66 -24 12.32 -24 13 C-24.99 13 -25.98 13 -27 13 C-27.33 12.01 -27.66 11.02 -28 10 C-5.85 -1.17 -5.85 -1.17 0 0 Z "
    fill="#0E0614"
    transform="translate(524,343)"
  />
  <path
    d="M0 0 C4 2 4 2 7 4 C7 4.99 7 5.98 7 7 C7.83 7.33 7.83 7.33 12 9 C13.65 10.98 15.3 12.96 17 15 C17.66 15.33 18.32 15.66 19 16 C19 16.99 19 17.98 19 19 C19.99 19 20.98 19 22 19 C22 19.66 22 20.32 22 21 C23.32 21.66 24.64 22.32 26 23 C26.33 24.65 26.66 26.3 27 28 C26.01 28 25.02 28 24 28 C20.96 24.7 17.97 21.36 15 18 C9.72 12.62 4.36 7.3 -1 2 C-0.67 1.34 -0.34 0.68 0 0 Z "
    fill="#121211"
    transform="translate(868,317)"
  />
  <path
    d="M0 0 C7.6 -0.03 15.21 -0.05 22.81 -0.06 C24.98 -0.07 27.15 -0.08 29.38 -0.09 C30.42 -0.09 30.42 -0.09 35.64 -0.1 C36.6 -0.1 36.6 -0.1 41.44 -0.11 C46 0 46 0 49 1 C48.67 1.99 48.34 2.98 48 4 C32.16 3.67 16.32 3.34 0 3 C0 2.01 0 1.02 0 0 Z "
    fill="#F4F4F3"
    transform="translate(511,778)"
  />
  <path
    d="M0 0 C15.16 -0.25 29.92 0.42 45 2 C44.01 2.66 43.02 3.32 42 4 C42.66 4.66 43.32 5.32 44 6 C37.29 7.68 30.73 5.27 24 4 C16.01 2.91 8.01 1.94 0 1 C0 0.67 0 0.34 0 0 Z "
    fill="#E5DEE9"
    transform="translate(627,230)"
  />
  <path
    d="M0 0 C9 3 9 3 13 7 C12.67 7.33 12.34 7.66 12 8 C12.33 9.65 12.66 11.3 13 13 C6 12 6 12 -2 8 C-1.34 7.67 -0.68 7.34 0 7 C-0.33 5.02 -0.66 3.04 -1 1 C-0.67 0.67 -0.34 0.34 0 0 Z "
    fill="#A356EB"
    transform="translate(407,712)"
  />
  <path
    d="M0 0 C0 0.66 0 1.32 0 2 C0.99 2.33 1.98 2.66 3 3 C-2.8 4.45 -8.4 4.13 -14.38 4.12 C-16.78 4.13 -19.18 4.13 -21.65 4.13 C-28 4 -28 4 -34 3 C-34 2.67 -34 2.34 -34 2 C-22.67 -0.45 -11.53 -0.18 0 0 Z "
    fill="#090608"
    transform="translate(637,226)"
  />
  <path
    d="M0 0 C2.64 0 5.28 0 8 0 C8.66 0.99 9.32 1.98 10 3 C11.65 3 13.3 3 15 3 C15.66 3.66 16.32 4.32 17 5 C17.99 5.33 18.98 5.66 20 6 C19.67 6.66 19.34 7.32 19 8 C20.98 8 22.96 8 25 8 C25.66 8.33 26.32 8.66 27 9 C28 13 28 13 27 15 C21 13 21 13 16 10 C10.67 6.99 5.34 3.99 0 1 C0 0.67 0 0.34 0 0 Z "
    fill="#9D50E0"
    transform="translate(439,924)"
  />
  <path
    d="M0 0 C4.58 1.29 9.17 2.58 13.75 3.88 C16.3 4.59 18.85 5.31 21.48 6.05 C30.85 8.85 30.85 8.85 34 12 C30.7 12 27.4 12 24 12 C24 11.34 24 10.68 24 10 C21.69 10 19.38 10 17 10 C16.34 9.67 15.68 9.34 15 9 C15 8.34 15 7.68 15 7 C13.02 7 11.04 7 9 7 C7.68 6.01 6.36 5.02 5 4 C4.67 4.33 4.34 4.66 4 5 C2.35 5 0.7 5 -1 5 C-0.67 3.35 -0.34 1.7 0 0 Z "
    fill="#F4F4F2"
    transform="translate(405,758)"
  />
  <path
    d="M0 0 C0.33 0 0.66 0 1 0 C2 7 2 7 2 9 C2.66 11.31 3.32 13.62 4 16 C3.01 16.66 2.02 17.32 1 18 C0.67 19.65 0.34 21.3 0 23 C-0.33 21.68 -0.66 20.36 -1 19 C-1.66 19 -2.32 19 -3 19 C-3 19.66 -3 20.32 -3 21 C-3.66 21 -4.32 21 -5 21 C-5.17 14.31 -4.86 9.52 -3 3 C-2.01 2.01 -1.02 1.02 0 0 Z "
    fill="#F9F8F3"
    transform="translate(265,639)"
  />
  <path
    d="M0 0 C0.33 0 0.66 0 1 0 C1.75 60.5 1.75 60.5 -4 72 C-5.07 65.56 -4.51 60.76 -3.62 54.31 C-3.49 53.29 -3.49 53.29 -2.79 48.11 C-2 43 -2 43 -1 40 C-0.76 33.27 -0.58 26.55 -0.44 19.81 C-0.39 17.92 -0.35 16.02 -0.31 14.07 C-0.2 9.38 -0.1 4.69 0 0 Z "
    fill="#A471D7"
    transform="translate(961,571)"
  />
  <path
    d="M0 0 C3.84 5.76 2.22 13.88 2.19 20.56 C2.18 23.76 2.17 26.96 2.17 30.25 C2 38 2 38 1 40 C0.34 40 -0.32 40 -1 40 C-1.03 34.27 -1.05 28.54 -1.06 22.81 C-1.07 19.62 -1.09 16.43 -1.1 13.14 C-1 5 -1 5 0 0 Z "
    fill="#161616"
    transform="translate(1000,582)"
  />
  <path
    d="M0 0 C0 0.66 0 1.32 0 2 C-29.34 9.53 -29.34 9.53 -37 8 C-36.34 7.34 -35.68 6.68 -35 6 C-32.69 6 -30.38 6 -28 6 C-27.67 5.01 -27.34 4.02 -27 3 C-21 2 -21 2 -14 2 C-2.98 -0.99 -2.98 -0.99 0 0 Z "
    fill="#06030A"
    transform="translate(702,865)"
  />
  <path
    d="M0 0 C0.33 1.65 0.66 3.3 1 5 C0.17 4.84 0.17 4.84 -4 4 C-4 4.99 -4 5.98 -4 7 C-5.65 7 -7.3 7 -9 7 C-9.33 7.66 -9.66 8.32 -10 9 C-11.32 9 -12.64 9 -14 9 C-14 9.99 -14 10.98 -14 12 C-19 15 -19 15 -21 16 C-21.33 15.34 -21.66 14.68 -22 14 C-23.32 13.34 -24.64 12.68 -26 12 C-21.49 8.62 -17.02 6.61 -11.88 4.31 C-10.08 3.5 -8.28 2.7 -6.43 1.86 C-2 0 -2 0 0 0 Z "
    fill="#111110"
    transform="translate(751,761)"
  />
  <path
    d="M0 0 C3.28 4.1 6.41 8.32 9.5 12.56 C15 20 15 20 19 24 C18.67 24.99 18.34 25.98 18 27 C17.34 26.67 16.68 26.34 16 26 C16 25.34 16 24.68 16 24 C14.02 24 12.04 24 10 24 C9.67 21.03 9.34 18.06 9 15 C7.68 15.33 6.36 15.66 5 16 C5 14.35 5 12.7 5 11 C4.01 11 3.02 11 2 11 C2 10.34 2 9.68 2 9 C1.34 9 0.68 9 0 9 C0 6.03 0 3.06 0 0 Z "
    fill="#EEEDEB"
    transform="translate(277,661)"
  />
  <path
    d="M0 0 C0 0.99 0 1.98 0 3 C-12.29 13 -12.29 13 -15 13 C-15 10.03 -15 7.06 -15 4 C-10.04 0.28 -6.19 -1.55 0 0 Z "
    fill="#AA5DEF"
    transform="translate(817,910)"
  />
  <path
    d="M0 0 C-2 3 -2 3 -5 4 C-17.35 4.27 -29.67 3.59 -42 3 C-42 2.67 -42 2.34 -42 2 C-39.36 1.84 -39.36 1.84 -26 1 C-26 0.67 -26 0.34 -26 0 C-17.16 -0.97 -8.86 -0.8 0 0 Z "
    fill="#0B0B0B"
    transform="translate(584,811)"
  />
  <path
    d="M0 0 C1.32 0.33 2.64 0.66 4 1 C0.05 4.95 -3.93 7.92 -8.5 11.12 C-10 12.18 -11.49 13.23 -13.03 14.32 C-17 17 -17 17 -21 19 C-21 17.35 -21 15.7 -21 14 C-18 12 -18 12 -14 12 C-13.67 10.68 -13.34 9.36 -13 8 C-12.34 8 -11.68 8 -11 8 C-11 7.34 -11 6.68 -11 6 C-4 2 -4 2 0 2 C0 1.34 0 0.68 0 0 Z "
    fill="#0B0B0B"
    transform="translate(805,685)"
  />
  <path
    d="M0 0 C0.33 0.66 0.66 1.32 1 2 C2.65 2 4.3 2 6 2 C6 3.65 6 5.3 6 7 C6.99 7.33 7.98 7.66 9 8 C10.15 8.5 10.15 8.5 16 11 C16 11.66 16 12.32 16 13 C15.34 13 14.68 13 14 13 C14.99 13.99 15.98 14.98 17 16 C17.66 15.67 18.32 15.34 19 15 C21 20 21 20 21 23 C18.69 21.02 16.38 19.04 14 17 C11.4 14.91 8.8 12.82 6.19 10.75 C-1 5 -1 5 -3 3 C-2.34 3 -1.68 3 -1 3 C-0.67 2.01 -0.34 1.02 0 0 Z "
    fill="#9E50E0"
    transform="translate(791,375)"
  />
  <path
    d="M0 0 C14.27 5.71 26.59 15.11 39 24 C38.01 24.33 37.02 24.66 36 25 C35.34 24.67 34.68 24.34 34 24 C34 23.34 34 22.68 34 22 C31.69 22 29.38 22 27 22 C27 21.34 27 20.68 27 20 C26.34 20 25.68 20 25 20 C25 19.01 25 18.02 25 17 C23.68 16.67 22.36 16.34 21 16 C20.67 15.34 20.34 14.68 20 14 C19.01 13.67 18.02 13.34 17 13 C17 12.34 17 11.68 17 11 C14.36 9.94 11.7 8.9 9 8 C9 7.34 9 6.68 9 6 C8.01 5.83 8.01 5.83 3 5 C3 4.34 3 3.68 3 3 C2.01 2.67 1.02 2.34 0 2 C0 1.34 0 0.68 0 0 Z "
    fill="#E8E8E6"
    transform="translate(804,275)"
  />
  <path
    d="M0 0 C2 2 2 2 2 6 C1.34 6 0.68 6 0 6 C0.33 8.31 0.66 10.62 1 13 C0.34 13.66 -0.32 14.32 -1 15 C-1.33 17.64 -1.66 20.28 -2 23 C-2.33 23.33 -2.66 23.66 -3 24 C-3.33 26.97 -3.66 29.94 -4 33 C-4.66 33 -5.32 33 -6 33 C-6.33 33.66 -6.66 34.32 -7 35 C-8.04 25.67 -6.92 21.2 -4.06 12.44 C-3.31 10.11 -2.56 7.77 -1.79 5.37 C-1.2 3.6 -0.61 1.83 0 0 Z "
    fill="#0E0614"
    transform="translate(357,510)"
  />
  <path
    d="M0 0 C12.16 3.04 25.25 21.16 34 30 C33.34 30.66 32.68 31.32 32 32 C24.08 24.08 16.16 16.16 8 8 C7.67 8.17 7.67 8.17 6 9 C6 8.34 6 7.68 6 7 C5.34 7 4.68 7 4 7 C2.68 5.68 1.36 4.36 0 3 C0 2.01 0 1.02 0 0 Z "
    fill="#E9E9E6"
    transform="translate(857,312)"
  />
  <path
    d="M0 0 C3 4 3 4 3 12 C3.66 12 4.32 12 5 12 C5.33 13.98 5.66 15.96 6 18 C4.02 17.34 2.04 16.68 0 16 C-1.32 16.33 -2.64 16.66 -4 17 C-4 12.71 -4 8.42 -4 4 C-2.68 3.67 -1.36 3.34 0 3 C0 2.01 0 1.02 0 0 Z "
    fill="#FCFBF8"
    transform="translate(975,473)"
  />
  <path
    d="M0 0 C10.49 5.06 20.31 10.54 30 17 C29.34 17.99 28.68 18.98 28 20 C27.01 20 26.02 20 25 20 C25 19.01 25 18.02 25 17 C24.01 17 23.02 17 22 17 C22 16.01 22 15.02 22 14 C20.68 13.67 19.36 13.34 18 13 C18 12.34 18 11.68 18 11 C15.69 10.67 13.38 10.34 11 10 C9.02 9.01 7.04 8.02 5 7 C5 6.34 5 5.68 5 5 C3.35 5 1.7 5 0 5 C0 3.35 0 1.7 0 0 Z "
    fill="#09030E"
    transform="translate(747,353)"
  />
  <path
    d="M0 0 C0.66 0.99 1.32 1.98 2 3 C5.3 3 8.6 3 12 3 C11.67 4.32 11.34 5.64 11 7 C5 9 5 9 -1 9 C-1.33 8.01 -1.66 7.02 -2 6 C-7 6 -7 6 -9 7 C-9 6.01 -9 5.02 -9 4 C-8.34 3.67 -7.68 3.34 -7 3 C-7.33 2.34 -7.66 1.68 -8 1 C-3 0 -3 0 0 0 Z "
    fill="#FCFAF4"
    transform="translate(715,241)"
  />
  <path
    d="M0 0 C0.82 0.17 0.82 0.17 5 1 C0.2 4.6 -4.85 7.27 -10.12 10.12 C-12.11 11.2 -14.09 12.28 -16.13 13.38 C-21 16 -21 16 -23 17 C-23.66 16.34 -24.32 15.68 -25 15 C-23.35 14.01 -21.7 13.02 -20 12 C-19.67 11.34 -19.34 10.68 -19 10 C-17.68 10 -16.36 10 -15 10 C-15 9.01 -15 8.02 -15 7 C-14.01 7 -13.02 7 -12 7 C-11.67 6.01 -11.34 5.02 -11 4 C-6 2 -6 2 0 2 C0 1.34 0 0.68 0 0 Z "
    fill="#08030B"
    transform="translate(463,265)"
  />
  <path
    d="M0 0 C0.66 1.32 1.32 2.64 2 4 C-6.75 9.84 -17.02 12.97 -27 16 C-27.99 15.67 -28.98 15.34 -30 15 C-20 10 -10 5 0 0 Z "
    fill="#EAE4EE"
    transform="translate(775,940)"
  />
  <path
    d="M0 0 C0.66 0.33 1.32 0.66 2 1 C1 6 1 6 -3 9 C-3 8.34 -3 7.68 -3 7 C-3.66 7 -4.32 7 -5 7 C-5 7.66 -5 8.32 -5 9 C-6.32 9 -7.64 9 -9 9 C-9.99 9.99 -10.98 10.98 -12 12 C-12.66 12.33 -12.66 12.33 -16 14 C-16.33 14.99 -16.66 15.98 -17 17 C-19.64 16.67 -22.28 16.34 -25 16 C-20.45 12.59 -15.7 9.78 -10.81 6.88 C-1.1 1.1 -1.1 1.1 0 0 Z "
    fill="#171716"
    transform="translate(793,736)"
  />
  <path
    d="M0 0 C0.99 0.66 1.98 1.32 3 2 C3.53 17.23 2.51 31.96 0 47 C-0.33 47 -0.66 47 -1 47 C-1.76 40.86 -1.89 36.2 -1 30 C-0.78 24.86 -0.59 19.71 -0.44 14.56 C-0.35 11.84 -0.27 9.12 -0.18 6.32 C-0.12 4.23 -0.06 2.15 0 0 Z "
    fill="#0D0D0C"
    transform="translate(949,485)"
  />
  <path
    d="M0 0 C0.33 0.66 0.66 1.32 1 2 C1.99 2.33 2.98 2.66 4 3 C-0.93 4.53 -5.87 6.05 -10.81 7.56 C-12.19 7.99 -12.19 7.99 -19.14 10.13 C-26 12 -26 12 -29 11 C-26.36 9.68 -23.72 8.36 -21 7 C-21 6.67 -21 6.34 -21 6 C-19.35 5.67 -17.7 5.34 -16 5 C-15.67 4.34 -15.34 3.68 -15 3 C-12.36 3 -9.72 3 -7 3 C-7 2.34 -7 1.68 -7 1 C-5.85 0.84 -5.85 0.84 0 0 Z "
    fill="#121212"
    transform="translate(675,752)"
  />
  <path
    d="M0 0 C0.33 0.99 0.66 1.98 1 3 C1.99 2.67 2.98 2.34 4 2 C2.94 9.41 0.72 14.25 -2.56 20.94 C-3.57 23.01 -4.59 25.08 -5.63 27.21 C-6.41 28.79 -7.19 30.37 -8 32 C-8.66 31.67 -9.32 31.34 -10 31 C-10 29.68 -10 28.36 -10 27 C-9.34 27 -8.68 27 -8 27 C-8 25.02 -8 23.04 -8 21 C-7.01 21 -6.02 21 -5 21 C-4.67 18.69 -4.34 16.38 -4 14 C-3.34 13.01 -2.68 12.02 -2 11 C-1.67 11 -1.34 11 -1 11 C1 5 1 5 0 0 Z "
    fill="#09080A"
    transform="translate(898,564)"
  />
  <path
    d="M0 0 C15.17 4.08 15.17 4.08 21 6 C21.33 6.66 21.66 7.32 22 8 C21.01 8 20.02 8 19 8 C19 8.66 19 9.32 19 10 C18.01 10 17.02 10 16 10 C16 9.34 16 8.68 16 8 C15.34 8.33 15.34 8.33 12 10 C10.68 9.67 9.36 9.34 8 9 C7.34 7.68 6.68 6.36 6 5 C4.02 5 2.04 5 0 5 C0 3.33 0 1.67 0 0 Z "
    fill="#EAE9E7"
    transform="translate(733,245)"
  />
  <path
    d="M0 0 C0.66 0.33 1.32 0.66 2 1 C1.67 1.66 1.34 2.32 1 3 C1.66 3.33 2.32 3.66 3 4 C2.34 4.66 1.68 5.32 1 6 C0.01 5.83 0.01 5.83 -5 5 C-5.33 5.99 -5.66 6.98 -6 8 C-6.99 8 -7.98 8 -9 8 C-9.66 9.32 -10.32 10.64 -11 12 C-11.99 12 -12.98 12 -14 12 C-14 12.66 -14 13.32 -14 14 C-16.31 14.33 -18.62 14.66 -21 15 C-21.33 14.01 -21.66 13.02 -22 12 C-18.38 9.97 -14.75 7.95 -11.12 5.94 C-9.11 4.81 -7.09 3.69 -5.01 2.53 C-3.36 1.69 -1.7 0.86 0 0 Z "
    fill="#994EDB"
    transform="translate(466,267)"
  />
  <path
    d="M0 0 C2 2 2 2 2 9 C0.38 22.43 0.38 22.43 -2 26 C-2.66 28.31 -3.32 30.62 -4 33 C-4.99 33 -5.98 33 -7 33 C-6.7 31.67 -6.7 31.67 -5.19 24.94 C-3.34 16.65 -1.63 8.34 0 0 Z "
    fill="#111110"
    transform="translate(993,669)"
  />
  <path
    d="M0 0 C0.33 0 0.66 0 1 0 C1.33 2.64 1.66 5.28 2 8 C0.02 10.31 -1.96 12.62 -4 15 C-4.66 15 -5.32 15 -6 15 C-6 16.32 -6 17.64 -6 19 C-7.65 19 -9.3 19 -11 19 C-11.66 19.33 -11.66 19.33 -15 21 C-10.94 14.76 -6.61 8.85 -2 3 C-1.34 2.01 -0.68 1.02 0 0 Z "
    fill="#121212"
    transform="translate(902,635)"
  />
  <path
    d="M0 0 C0 0.99 0 1.98 0 3 C2.97 3 5.94 3 9 3 C9 3.66 9 4.32 9 5 C12.3 5 15.6 5 19 5 C19 6.65 19 8.3 19 10 C14.52 9.08 10.04 8.14 5.56 7.19 C4.32 6.93 4.32 6.93 -2 5.61 C-3.98 5.08 -5.96 4.55 -8 4 C-8.33 3.01 -8.66 2.02 -9 1 C-5 0 -5 0 0 0 Z "
    fill="#0D0D0C"
    transform="translate(714,235)"
  />
  <path
    d="M0 0 C1.32 0.66 2.64 1.32 4 2 C3.67 3.32 3.34 4.64 3 6 C2.34 6 1.68 6 1 6 C1 8.31 1 10.62 1 13 C0.01 14.98 -0.98 16.96 -2 19 C-2.66 18.34 -3.32 17.68 -4 17 C-4.33 19.31 -4.66 21.62 -5 24 C-5.33 24 -5.66 24 -6 24 C-8.49 12.79 -5.7 9.58 0 0 Z "
    fill="#512D9C"
    transform="translate(938,614)"
  />
  <path
    d="M0 0 C9.4 2.11 18.7 4.48 28 7 C25 9 25 9 18 10 C17.67 9.34 17.34 8.68 17 8 C14.69 7.67 12.38 7.34 10 7 C5 6 5 6 0 4 C0 2.68 0 1.36 0 0 Z "
    fill="#09030D"
    transform="translate(514,959)"
  />
  <path
    d="M0 0 C0 0.66 0 1.32 0 2 C-2.31 2 -4.62 2 -7 2 C-7.33 2.99 -7.66 3.98 -8 5 C-9.67 4.94 -11.34 4.88 -13.06 4.81 C-19 5 -19 5 -26 8 C-26.99 7.84 -26.99 7.84 -32 7 C-27.41 3.94 -22.39 2.83 -17.12 1.25 C-14.98 0.6 -12.84 -0.06 -10.63 -0.73 C-5 -2 -5 -2 0 0 Z "
    fill="#E6E6E4"
    transform="translate(684,756)"
  />
  <path
    d="M0 0 C3.19 4.79 1.96 9.47 1.69 15.12 C1.59 17.31 1.49 19.5 1.39 21.76 C1.07 26.85 0.56 31.93 0 37 C-2 35 -2 35 -2.27 29.94 C-2.26 27.84 -2.26 25.73 -2.25 23.56 C-2.26 21.48 -2.26 19.4 -2.27 17.25 C-2.01 11.31 -1.21 5.81 0 0 Z "
    fill="#07020B"
    transform="translate(265,521)"
  />
  <path
    d="M0 0 C0.33 0 0.66 0 1 0 C2 8 2 8 -1 13 C-1.16 14.84 -1.33 16.67 -1.5 18.56 C-2 24 -2 24 -5 28 C-5 28.99 -5 29.98 -5 31 C-5.99 30.67 -6.98 30.34 -8 30 C-9.64 23.45 -6.32 18.2 -4 12 C-2.66 8 -1.32 4 0 0 Z "
    fill="#F3E9F7"
    transform="translate(942,715)"
  />
  <path
    d="M0 0 C3.3 0 6.6 0 10 0 C6.7 3.3 2.3 4.35 -2 6 C-1.67 6.66 -1.34 7.32 -1 8 C-10.62 11 -10.62 11 -14 11 C-14 10.34 -14 9.68 -14 9 C-13.01 8.67 -12.02 8.34 -11 8 C-11.99 7.01 -12.98 6.02 -14 5 C-10 4 -10 4 -8 4 C-6.68 3.34 -5.36 2.68 -4 2 C-2.68 2 -1.36 2 0 2 C0 1.34 0 0.68 0 0 Z "
    fill="#AA68E3"
    transform="translate(748,949)"
  />
  <path
    d="M0 0 C0 0.99 0 1.98 0 3 C-7 5 -7 5 -14 5 C-14.33 5.99 -14.66 6.98 -15 8 C-17.64 8 -20.28 8 -23 8 C-23.99 6.68 -24.98 5.36 -26 4 C-22.42 3.33 -18.83 2.66 -15.25 2 C-13.25 1.63 -11.26 1.26 -9.2 0.88 C-4 0 -4 0 0 0 Z "
    fill="#10100F"
    transform="translate(630,802)"
  />
  <path
    d="M0 0 C0.66 0.99 1.32 1.98 2 3 C1.01 5.31 0.02 7.62 -1 10 C-2.65 10.33 -4.3 10.66 -6 11 C-6.33 11.99 -6.66 12.98 -7 14 C-7.66 14 -8.32 14 -9 14 C-9 14.99 -9 15.98 -9 17 C-12 18 -12 18 -15 18 C-15.66 18.33 -15.66 18.33 -19 20 C-13.93 14.08 -8.78 9.18 -3 4 C-2.01 2.68 -1.02 1.36 0 0 Z "
    fill="#F2F2F0"
    transform="translate(845,653)"
  />
  <path
    d="M0 0 C0.33 0 0.66 0 1 0 C1.66 2.64 2.32 5.28 3 8 C2.01 8.66 1.02 9.32 0 10 C-0.82 11.65 -1.65 13.3 -2.5 15 C-5 20 -5 20 -8 22 C-9.7 13.48 -4.07 7.3 0 0 Z "
    fill="#9C4BDE"
    transform="translate(301,425)"
  />
  <path
    d="M0 0 C10.5 0.75 10.5 0.75 15 3 C15 2.34 15 1.68 15 1 C24.1 3.02 33.05 5.38 42 8 C42 8.33 42 8.66 42 9 C27.79 7.75 13.68 5.08 0 1 C0 0.67 0 0.34 0 0 Z "
    fill="#8D4BBB"
    transform="translate(434,730)"
  />
  <path
    d="M0 0 C0.99 0 1.98 0 3 0 C3.33 0.99 3.66 1.98 4 3 C4.99 2.67 5.98 2.34 7 2 C9.06 8.17 9.3 12.55 9 19 C8.34 19.99 7.68 20.98 7 22 C5.83 18.71 4.66 15.42 3.5 12.12 C2.85 10.29 2.2 8.46 1.53 6.57 C0 2 0 2 0 0 Z "
    fill="#9D4DE0"
    transform="translate(882,499)"
  />
  <path
    d="M0 0 C0.99 0.99 1.98 1.98 3 3 C-2.25 8.76 -7.49 14.49 -13 20 C-13 15 -13 15 -9 10 C-8.34 8.35 -7.68 6.7 -7 5 C-6.01 4.67 -5.02 4.34 -4 4 C-2.68 2.68 -1.36 1.36 0 0 Z "
    fill="#5B36A8"
    transform="translate(873,814)"
  />
  <path
    d="M0 0 C9.5 0.5 9.5 0.5 14 5 C15.65 5.33 17.3 5.66 19 6 C19 6.66 19 7.32 19 8 C20.32 8 21.64 8 23 8 C23.66 9.98 24.32 11.96 25 14 C16.14 10.46 8.09 6.06 0 1 C0 0.67 0 0.34 0 0 Z "
    fill="#1C1D1B"
    transform="translate(347,730)"
  />
  <path
    d="M0 0 C0 7.96 -0.78 15.16 -2 23 C-2.99 23.33 -3.98 23.66 -5 24 C-5 24.99 -5 25.98 -5 27 C-5.66 27 -6.32 27 -7 27 C-4.77 8.18 -4.77 8.18 -3 1 C-1 0 -1 0 0 0 Z "
    fill="#EFEBF3"
    transform="translate(919,513)"
  />
  <path
    d="M0 0 C0.33 0 0.66 0 1 0 C2.21 6.04 2.09 11.66 2.06 17.81 C2.05 20.09 2.04 22.36 2.04 24.71 C2.02 26.45 2.01 28.2 2 30 C1.67 30 1.34 30 1 30 C0.67 34.95 0.34 39.9 0 45 C-0.33 45 -0.66 45 -1 45 C-1.22 38.81 -1.43 32.63 -1.62 26.44 C-1.69 24.68 -1.75 22.93 -1.82 21.12 C-2.05 13.56 -2.09 7.32 0 0 Z "
    fill="#EDE8F1"
    transform="translate(918,461)"
  />
  <path
    d="M0 0 C6.86 2.74 10.2 7.5 15 13 C14.34 13.66 13.68 14.32 13 15 C11.68 14.34 10.36 13.68 9 13 C8.67 13.17 8.67 13.17 7 14 C7 12.68 7 11.36 7 10 C5.68 10 4.36 10 3 10 C3 9.34 3 8.68 3 8 C2.01 7.67 1.02 7.34 0 7 C0 4.69 0 2.38 0 0 Z "
    fill="#A050E9"
    transform="translate(815,323)"
  />
  <path
    d="M0 0 C0.66 0.33 1.32 0.66 2 1 C2 1.66 2 2.32 2 3 C2.66 3 3.32 3 4 3 C9 8 9 8 10 12 C11.98 13.98 13.96 15.96 16 18 C16 18.66 16 19.32 16 20 C16.66 20 17.32 20 18 20 C18.99 20.99 19.98 21.98 21 23 C20.67 23.99 20.34 24.98 20 26 C11.79 18.96 5.28 11.79 -1 3 C-0.67 2.01 -0.34 1.02 0 0 Z "
    fill="#121110"
    transform="translate(285,669)"
  />
  <path
    d="M0 0 C0 1.65 0 3.3 0 5 C-1.98 5.99 -3.96 6.98 -6 8 C-6.33 8.66 -6.66 9.32 -7 10 C-9.31 10.33 -11.62 10.66 -14 11 C-14.66 12.65 -15.32 14.3 -16 16 C-17.65 16 -19.3 16 -21 16 C-21.33 15.34 -21.66 14.68 -22 14 C-1.94 0 -1.94 0 0 0 Z "
    fill="#0B0310"
    transform="translate(479,363)"
  />
  <path
    d="M0 0 C0.33 1.32 0.66 2.64 1 4 C2.32 4 3.64 4 5 4 C5 4.66 5 5.32 5 6 C0 7 0 7 -7 4 C-10.33 2.66 -13.66 1.33 -17 0 C-10.14 -3.43 -7.27 -2.7 0 0 Z "
    fill="#9C4CDE"
    transform="translate(738,342)"
  />
  <path
    d="M0 0 C0.33 0.66 0.66 1.32 1 2 C3.64 2.33 6.28 2.66 9 3 C9.33 3.66 9.66 4.32 10 5 C12.97 5.33 15.94 5.66 19 6 C19 6.33 19 6.66 19 7 C6.81 7.23 -4.9 6.34 -17 5 C-17 4.67 -17 4.34 -17 4 C-15.12 3.71 -13.25 3.42 -11.31 3.12 C-5 2 -5 2 0 0 Z "
    fill="#954BD0"
    transform="translate(594,969)"
  />
  <path
    d="M0 0 C0.99 0.33 1.98 0.66 3 1 C2 8 2 8 1 11 C0.01 11 -0.98 11 -2 11 C-2 12.65 -2 14.3 -2 16 C-2.66 16 -3.32 16 -4 16 C-4 16.99 -4 17.98 -4 19 C-5.65 19 -7.3 19 -9 19 C-6.72 12.17 -3.47 6.29 0 0 Z "
    fill="#181717"
    transform="translate(924,597)"
  />
  <path
    d="M0 0 C1.65 1.32 3.3 2.64 5 4 C5 4.99 5 5.98 5 7 C5.99 7.33 6.98 7.66 8 8 C8.33 9.98 8.66 11.96 9 14 C8.01 14.66 7.02 15.32 6 16 C-1 9 -1 9 -3 3 C-2.34 3 -1.68 3 -1 3 C-0.67 2.01 -0.34 1.02 0 0 Z "
    fill="#A04EE6"
    transform="translate(314,648)"
  />
  <path
    d="M0 0 C0.33 0.66 0.66 1.32 1 2 C1.66 2 2.32 2 3 2 C2.86 2.78 2.86 2.78 2.12 6.75 C1.03 12.83 0 18.91 -1 25 C-2.65 24.67 -4.3 24.34 -6 24 C-6 22.35 -6 20.7 -6 19 C-5.01 18.67 -4.02 18.34 -3 18 C-3 14.37 -3 10.74 -3 7 C-2.01 6.67 -1.02 6.34 0 6 C0 4.02 0 2.04 0 0 Z "
    fill="#0A0410"
    transform="translate(270,492)"
  />
  <path
    d="M0 0 C-0.33 0.66 -0.66 1.32 -1 2 C1.31 2.33 3.62 2.66 6 3 C6 3.33 6 3.66 6 4 C1.92 4.51 -2.17 5.01 -6.25 5.5 C-7.39 5.64 -7.39 5.64 -13.14 6.34 C-19.48 6.95 -25.64 7.12 -32 7 C-32 6.67 -32 6.34 -32 6 C-31.19 5.93 -31.19 5.93 -27.06 5.56 C-22 5 -22 5 -21 4 C-19.06 3.69 -17.12 3.38 -15.12 3.06 C-8.8 1.96 -6.42 0 0 0 Z "
    fill="#EDECEA"
    transform="translate(590,804)"
  />
  <path
    d="M0 0 C1.65 0 3.3 0 5 0 C3 5 3 5 1 7 C0.69 10.7 0.5 14.41 0.38 18.12 C0.3 20.15 0.23 22.17 0.15 24.26 C0.1 25.82 0.05 27.39 0 29 C-0.66 29 -1.32 29 -2 29 C-4.25 12.75 -4.25 12.75 -2 6 C-1.34 6 -0.68 6 0 6 C0 4.02 0 2.04 0 0 Z "
    fill="#0C0C0C"
    transform="translate(255,607)"
  />
  <path
    d="M0 0 C2.97 5.95 0.81 9.76 -1 16 C-1.99 18.64 -2.98 21.28 -4 24 C-4.33 23.01 -4.66 22.02 -5 21 C-5.66 21 -6.32 21 -7 21 C-7.66 22.32 -8.32 23.64 -9 25 C-8.67 23.35 -8.34 21.7 -8 20 C-7.34 20 -6.68 20 -6 20 C-6.33 18.68 -6.66 17.36 -7 16 C-6.67 15.34 -6.34 14.68 -6 14 C-5.34 14 -4.68 14 -4 14 C-4 11.69 -4 9.38 -4 7 C-3.34 7 -2.68 7 -2 7 C-1.34 4.69 -0.68 2.38 0 0 Z "
    fill="#EDEDEA"
    transform="translate(938,553)"
  />
  <path
    d="M0 0 C1 3 1 3 -1 10 C-1.99 10.33 -2.98 10.66 -4 11 C-4.66 12.98 -5.32 14.96 -6 17 C-6.99 17 -7.98 17 -9 17 C-8.67 18.65 -8.34 20.3 -8 22 C-9.65 22 -11.3 22 -13 22 C-13 22.66 -13 23.32 -13 24 C-13.66 24 -14.32 24 -15 24 C-11.89 16.22 -6.78 9.84 -2 3 C-1.34 2.01 -0.68 1.02 0 0 Z "
    fill="#0C0412"
    transform="translate(399,434)"
  />
  <path
    d="M0 0 C0.99 0.33 1.98 0.66 3 1 C3 1.99 3 2.98 3 4 C2.34 4.33 2.34 4.33 -1 6 C-1.95 7.53 -2.9 9.05 -3.88 10.62 C-4.39 11.35 -4.39 11.35 -7 15 C-8.98 15 -10.96 15 -13 15 C-13 14.01 -13 13.02 -13 12 C-8.73 7.93 -4.4 3.93 0 0 Z "
    fill="#9F50E3"
    transform="translate(384,322)"
  />
  <path
    d="M0 0 C4 1 4 1 7 4 C-10.38 7 -10.38 7 -16 7 C-15 3 -15 3 -14 2 C-11.83 1.83 -11.83 1.83 -1 1 C-0.67 0.67 -0.34 0.34 0 0 Z "
    fill="#0D0D0D"
    transform="translate(622,765)"
  />
  <path
    d="M0 0 C4 4 4 4 6.75 8.19 C10.14 13.2 13.91 17.55 18 22 C17.67 22.99 17.34 23.98 17 25 C11.45 20.56 8.11 15.76 4 10 C3.01 9.01 2.02 8.02 1 7 C0.34 7 -0.32 7 -1 7 C-1 6.01 -1 5.02 -1 4 C-1.66 3.34 -2.32 2.68 -3 2 C-2.01 2 -1.02 2 0 2 C0 1.34 0 0.68 0 0 Z "
    fill="#100619"
    transform="translate(295,633)"
  />
  <path
    d="M0 0 C1.65 0.99 3.3 1.98 5 3 C10 3 10 3 13 2 C14.32 2.66 15.64 3.32 17 4 C-2.38 7 -2.38 7 -8 7 C-8.33 5.68 -8.66 4.36 -9 3 C-8.34 2.34 -7.68 1.68 -7 1 C-5.02 1 -3.04 1 -1 1 C-0.67 0.67 -0.34 0.34 0 0 Z "
    fill="#A04EE3"
    transform="translate(579,320)"
  />
  <path
    d="M0 0 C0.99 0.33 1.98 0.66 3 1 C-0.26 7.53 -5.83 11.93 -11 17 C-12.32 18.32 -13.64 19.64 -15 21 C-15 19.02 -15 17.04 -15 15 C-14.34 15 -13.68 15 -13 15 C-12.67 14.01 -12.34 13.02 -12 12 C-11.34 12 -10.68 12 -10 12 C-10 11.34 -10 10.68 -10 10 C-9.34 10 -8.68 10 -8 10 C-8 9.01 -8 8.02 -8 7 C-7.34 7 -6.68 7 -6 7 C-5.67 6.34 -5.34 5.68 -5 5 C-5 5.66 -5 6.32 -5 7 C-4.34 7 -3.68 7 -3 7 C-2.67 5.68 -2.34 4.36 -2 3 C-1.34 2.01 -0.68 1.02 0 0 Z "
    fill="#0A030F"
    transform="translate(366,334)"
  />
  <path
    d="M0 0 C-6.59 6.59 -14.66 11.83 -23 16 C-23.66 15.34 -24.32 14.68 -25 14 C-24.01 13.67 -23.02 13.34 -22 13 C-22 12.34 -22 11.68 -22 11 C-20.68 11 -19.36 11 -18 11 C-18 10.01 -18 9.02 -18 8 C-16.35 7.67 -14.7 7.34 -13 7 C-12.67 5.68 -12.34 4.36 -12 3 C-10.68 3.33 -9.36 3.66 -8 4 C-8 3.01 -8 2.02 -8 1 C-5 -1 -5 -1 0 0 Z "
    fill="#EFEFED"
    transform="translate(817,720)"
  />
  <path
    d="M0 0 C5.14 7.72 8.08 17.24 11 26 C10.34 26.66 9.68 27.32 9 28 C8.01 25.03 7.02 22.06 6 19 C5.01 19 4.02 19 3 19 C3 18.01 3 17.02 3 16 C2.34 16 1.68 16 1 16 C0 9 0 9 0 0 Z "
    fill="#9950D9"
    transform="translate(347,634)"
  />
  <path
    d="M0 0 C3.53 7.05 7 14.04 7 22 C6.01 22 5.02 22 4 22 C4 22.66 4 23.32 4 24 C3.01 24 2.02 24 1 24 C1 19.33 1 14.67 1 10 C0.67 10 0.34 10 0 10 C0 6.7 0 3.4 0 0 Z "
    fill="#F3F3F2"
    transform="translate(257,615)"
  />
  <path
    d="M0 0 C2 4 2 4 1 12 C0.01 14.97 -0.98 17.94 -2 21 C-2.33 20.01 -2.66 19.02 -3 18 C-4.32 17.67 -5.64 17.34 -7 17 C-6.67 14.69 -6.34 12.38 -6 10 C-4.68 9.34 -3.36 8.68 -2 8 C-1.34 5.36 -0.68 2.72 0 0 Z "
    fill="#0C0A0C"
    transform="translate(960,545)"
  />
  <path
    d="M0 0 C9.04 0.55 17.41 2.38 26.19 4.56 C28.78 5.2 31.37 5.84 34.04 6.5 C36.01 7 37.97 7.49 40 8 C39.34 8.33 39.34 8.33 36 10 C35.84 9.67 35.84 9.67 35 8 C31.7 8.33 28.4 8.66 25 9 C24.34 7.68 23.68 6.36 23 5 C21.68 5.33 20.36 5.66 19 6 C19 5.34 19 4.68 19 4 C18.21 4.1 18.21 4.1 14.19 4.62 C9 5 9 5 6 3 C5.01 3 4.02 3 3 3 C3.33 2.34 3.66 1.68 4 1 C2.68 0.67 1.36 0.34 0 0 Z "
    fill="#DDDCDA"
    transform="translate(692,236)"
  />
  <path
    d="M0 0 C0.66 0 1.32 0 2 0 C9 26.07 9 26.07 9 30 C8.34 30 7.68 30 7 30 C7 28.68 7 27.36 7 26 C6.34 26 5.68 26 5 26 C2 17 2 17 2 9 C1.34 8.01 0.68 7.02 0 6 C0 4.02 0 2.04 0 0 Z "
    fill="#171617"
    transform="translate(260,670)"
  />
  <path
    d="M0 0 C3.94 4.92 6.5 9.56 9.31 15.19 C10.22 16.98 11.12 18.76 12.05 20.61 C12.69 22.06 13.34 23.51 14 25 C13.67 25.66 13.34 26.32 13 27 C12.34 26.67 11.68 26.34 11 26 C11 25.34 11 24.68 11 24 C10.34 24 9.68 24 9 24 C9 23.34 9 22.68 9 22 C8.01 21.67 7.02 21.34 6 21 C6.66 21 7.32 21 8 21 C7.34 19.82 7.34 19.82 4 13.88 C0 6 0 6 0 0 Z "
    fill="#E1E1DF"
    transform="translate(918,381)"
  />
  <path
    d="M0 0 C6.33 6.33 12.67 12.67 19 19 C18.34 19.33 18.34 19.33 15 21 C13.68 20.01 12.36 19.02 11 18 C11 17.01 11 16.02 11 15 C10.34 15 9.68 15 9 15 C8.67 14.01 8.34 13.02 8 12 C7.34 11.67 6.68 11.34 6 11 C6 10.34 6 9.68 6 9 C5.34 9 4.68 9 4 9 C2.33 7.33 0.67 5.67 -1 4 C-0.67 2.68 -0.34 1.36 0 0 Z "
    fill="#100619"
    transform="translate(347,848)"
  />
  <path
    d="M0 0 C5 1 5 1 9 6 C6 10 6 10 2 11 C-3 5 -3 5 -3 3 C-2.01 3 -1.02 3 0 3 C0 2.01 0 1.02 0 0 Z "
    fill="#5631A3"
    transform="translate(839,340)"
  />
  <path
    d="M0 0 C-0.33 1.65 -0.66 3.3 -1 5 C-4.42 5.08 -7.83 5.14 -11.25 5.19 C-13.15 5.22 -15.06 5.26 -17.02 5.29 C-22 5 -22 5 -26 2 C-6.75 0 -6.75 0 0 0 Z "
    fill="#07020A"
    transform="translate(672,974)"
  />
  <path
    d="M0 0 C0.99 0 1.98 0 3 0 C1.16 7.37 -5.69 11.85 -11 17 C-11.66 16.67 -12.32 16.34 -13 16 C-13 14.68 -13 13.36 -13 12 C-12.01 11.01 -11.02 10.02 -10 9 C-9.34 9 -8.68 9 -8 9 C-8 8.34 -8 7.68 -8 7 C-7.01 7 -6.02 7 -5 7 C-4.67 6.01 -4.34 5.02 -4 4 C-3.34 4 -2.68 4 -2 4 C-1.67 3.01 -1.34 2.02 -1 1 C-0.67 0.67 -0.34 0.34 0 0 Z "
    fill="#E4E4E3"
    transform="translate(895,858)"
  />
  <path
    d="M0 0 C2 1 2 1 3 3 C2.34 3 1.68 3 1 3 C1 3.66 1 4.32 1 5 C-0.65 5 -2.3 5 -4 5 C-4 5.99 -4 6.98 -4 8 C-11 10 -11 10 -16 10 C-16.33 9.01 -16.66 8.02 -17 7 C-11.36 4.6 -5.69 2.27 0 0 Z "
    fill="#E6E7E5"
    transform="translate(708,743)"
  />
  <path
    d="M0 0 C6 0 6 0 8 1 C10.02 1 12.04 1 14.12 1 C21 1 21 1 29 2 C29 2.66 29 3.32 29 4 C18.27 4.95 8.63 4.74 -2 3 C-1.34 2.01 -0.68 1.02 0 0 Z "
    fill="#05020A"
    transform="translate(581,871)"
  />
  <path
    d="M0 0 C0.33 0.66 0.66 1.32 1 2 C1.66 2.33 2.32 2.66 3 3 C0 12 0 12 -2 13 C-3.32 15.64 -4.64 18.28 -6 21 C-6.66 21 -7.32 21 -8 21 C-8.33 22.32 -8.66 23.64 -9 25 C-9.66 25 -10.32 25 -11 25 C-9.14 19.43 -6.91 14.41 -4.38 9.12 C-3.97 8.27 -3.97 8.27 -1.9 3.95 C-1.59 3.29 -1.59 3.29 0 0 Z "
    fill="#232322"
    transform="translate(966,756)"
  />
  <path
    d="M0 0 C5.32 1.33 9.2 4.01 13.88 6.88 C19.2 10.13 24.41 13.21 30 16 C26 17 26 17 22 16 C22 15.34 22 14.68 22 14 C21.01 14 20.02 14 19 14 C19 13.34 19 12.68 19 12 C16.03 11.01 13.06 10.02 10 9 C9.01 8.01 8.02 7.02 7 6 C5.35 5.67 3.7 5.34 2 5 C2 4.34 2 3.68 2 3 C1.34 3 0.68 3 0 3 C0 2.01 0 1.02 0 0 Z "
    fill="#0D0413"
    transform="translate(355,695)"
  />
  <path
    d="M0 0 C4.99 2.49 7.35 5.8 11 10 C13.63 12.38 16.29 14.71 19 17 C20.15 17.99 20.15 17.99 26 23 C25.01 23.33 24.02 23.66 23 24 C21.35 23.01 19.7 22.02 18 21 C17.67 19.68 17.34 18.36 17 17 C15.68 16.34 14.36 15.68 13 15 C5 9 5 9 4 6 C2.68 4.68 1.36 3.36 0 2 C0 1.34 0 0.68 0 0 Z "
    fill="#E6E5E3"
    transform="translate(297,689)"
  />
  <path
    d="M0 0 C0.66 0.99 1.32 1.98 2 3 C0.21 6.44 -1.58 9.88 -3.38 13.31 C-4.37 15.23 -5.37 17.14 -6.4 19.11 C-9 24 -9 24 -11 27 C-12 21 -12 21 -11 18 C-10.34 18 -9.68 18 -9 18 C-9 16.68 -9 15.36 -9 14 C-7.68 13.67 -6.36 13.34 -5 13 C-4.67 10.03 -4.34 7.06 -4 4 C-2.68 2.68 -1.36 1.36 0 0 Z "
    fill="#07020B"
    transform="translate(301,420)"
  />
  <path
    d="M0 0 C1.32 0.66 2.64 1.32 4 2 C-1 7 -6 10.31 -12 14 C-12.33 13.01 -12.66 12.02 -13 11 C-13.66 10.67 -14.32 10.34 -15 10 C-13.68 9.67 -12.36 9.34 -11 9 C-10.01 7.68 -9.02 6.36 -8 5 C-6.35 5 -4.7 5 -3 5 C-3 4.01 -3 3.02 -3 2 C-2.01 2 -1.02 2 0 2 C0 1.34 0 0.68 0 0 Z "
    fill="#F2F1F0"
    transform="translate(846,900)"
  />
  <path
    d="M0 0 C0.33 0.99 0.66 1.98 1 3 C6.94 3.33 12.88 3.66 19 4 C19 3.34 19 2.68 19 2 C21.31 2 23.62 2 26 2 C26 3.33 26 4.67 26 6 C12.42 5.51 -0.59 4.2 -14 2 C-14 1.67 -14 1.34 -14 1 C-5 0 -5 0 0 0 Z "
    fill="#D6D6D4"
    transform="translate(478,805)"
  />
  <path
    d="M0 0 C2.97 0.33 5.94 0.66 9 1 C9.33 1.99 9.66 2.98 10 4 C4.71 7.97 0.49 7.65 -6 8 C-5.34 6.68 -4.68 5.36 -4 4 C-3.34 4 -2.68 4 -2 4 C-2 3.34 -2 2.68 -2 2 C-1.34 2 -0.68 2 0 2 C0 1.34 0 0.68 0 0 Z "
    fill="#FAF9F4"
    transform="translate(819,913)"
  />
  <path
    d="M0 0 C0 0.33 0 0.66 0 1 C-2.97 1.99 -5.94 2.98 -9 4 C-10.65 4.66 -12.3 5.32 -14 6 C-17.3 6 -20.6 6 -24 6 C-24 5.67 -24 5.34 -24 5 C-24.66 5 -25.32 5 -26 5 C-27.32 4.67 -28.64 4.34 -30 4 C-25.94 3.13 -21.88 2.28 -17.81 1.44 C-15.55 0.96 -13.29 0.49 -10.96 -0 C-5 -1 -5 -1 0 0 Z "
    fill="#4E2D94"
    transform="translate(692,871)"
  />
  <path
    d="M0 0 C0.99 0 1.98 0 3 0 C3 0.66 3 1.32 3 2 C4.32 2 5.64 2 7 2 C8 5 8 5 8 13 C8.99 13 9.98 13 11 13 C10.67 14.65 10.34 16.3 10 18 C9.34 18.33 8.68 18.66 8 19 C0 1.12 0 1.12 0 0 Z "
    fill="#0A090A"
    transform="translate(963,439)"
  />
  <path
    d="M0 0 C5 2 5 2 7 5 C7 5.99 7 6.98 7 8 C7.66 8.33 8.32 8.66 9 9 C8.67 9.66 8.34 10.32 8 11 C8.99 11 9.98 11 11 11 C13 15 13 15 13 20 C7.18 14.18 2.56 7.84 -2 1 C-1.34 0.67 -0.68 0.34 0 0 Z "
    fill="#121111"
    transform="translate(898,348)"
  />
  <path
    d="M0 0 C6.9 2.3 12.57 4.79 19 8 C21.97 8.99 24.94 9.98 28 11 C27.01 11.66 26.02 12.32 25 13 C25 12.34 25 11.68 25 11 C21.37 11 17.74 11 14 11 C14.33 10.01 14.66 9.02 15 8 C12.69 7.67 10.38 7.34 8 7 C6.02 6.34 4.04 5.68 2 5 C2.66 4.67 3.32 4.34 4 4 C4 3.34 4 2.68 4 2 C2.68 2.33 1.36 2.66 0 3 C0 2.01 0 1.02 0 0 Z "
    fill="#12081A"
    transform="translate(385,712)"
  />
  <path
    d="M0 0 C1.32 0.33 2.64 0.66 4 1 C1.6 8.19 -1.04 15.04 -4 22 C-4.66 21.34 -5.32 20.68 -6 20 C-6 18.35 -6 16.7 -6 15 C-5.34 15 -4.68 15 -4 15 C-3 10 -3 10 -3 7 C-2.01 4.69 -1.02 2.38 0 0 Z "
    fill="#07030B"
    transform="translate(286,446)"
  />
  <path
    d="M0 0 C8.27 -0.2 15.87 0.45 24 2 C19.03 4.48 14.48 5.09 9 6 C4 4 4 4 3 2 C2.01 1.34 1.02 0.68 0 0 Z "
    fill="#F3F1F4"
    transform="translate(666,233)"
  />
  <path
    d="M0 0 C0.99 0 1.98 0 3 0 C2.67 1.32 2.34 2.64 2 4 C0.35 4.33 -1.3 4.66 -3 5 C-3.33 5.66 -3.66 6.32 -4 7 C-10.94 7.75 -10.94 7.75 -18 8 C-18.66 7.34 -19.32 6.68 -20 6 C-13.8 3.52 -7.52 2.39 -1 1 C-0.67 0.67 -0.34 0.34 0 0 Z "
    fill="#100B15"
    transform="translate(742,957)"
  />
  <path
    d="M0 0 C2 2 2 2 4 6 C10 10 10 10 15 11 C15.99 12.32 16.98 13.64 18 15 C17.34 16.32 16.68 17.64 16 19 C10 14.5 4.93 10.55 0 5 C0 3.35 0 1.7 0 0 Z "
    fill="#F8F2FA"
    transform="translate(287,718)"
  />
  <path
    d="M0 0 C0.82 0.16 0.82 0.16 5 1 C5.33 2.32 5.66 3.64 6 5 C7.32 5.66 8.64 6.32 10 7 C10.66 7.33 11.32 7.66 12 8 C12.33 9.65 12.66 11.3 13 13 C12.01 13.99 11.02 14.98 10 16 C2.25 5.62 2.25 5.62 0 0 Z "
    fill="#A14DE6"
    transform="translate(292,627)"
  />
  <path
    d="M0 0 C0.99 0.33 1.98 0.66 3 1 C5.46 7.16 4.72 11.49 4 18 C3.34 18 2.68 18 2 18 C-1 10 -1 10 -1 2 C-0.67 1.34 -0.34 0.68 0 0 Z "
    fill="#0D0C0C"
    transform="translate(959,439)"
  />
  <path
    d="M0 0 C2.31 0 4.62 0 7 0 C5.68 0.33 4.36 0.66 3 1 C2.67 1.99 2.34 2.98 2 4 C1.34 4 0.68 4 0 4 C-0.33 4.99 -0.66 5.98 -1 7 C-7.26 9.59 -13.57 11.86 -20 14 C-20 13.34 -20 12.68 -20 12 C-18.35 11.67 -16.7 11.34 -15 11 C-15 10.34 -15 9.68 -15 9 C-13.35 9 -11.7 9 -10 9 C-10 8.01 -10 7.02 -10 6 C-8.02 5.34 -6.04 4.68 -4 4 C-2.68 2.68 -1.36 1.36 0 0 Z "
    fill="#0C0C0C"
    transform="translate(714,735)"
  />
  <path
    d="M0 0 C0.33 0 0.66 0 1 0 C1 8 1 8 0 14 C-0.23 19.96 -0.41 25.92 -0.56 31.88 C-0.65 35.07 -0.73 38.26 -0.82 41.55 C-0.88 44.01 -0.94 46.47 -1 49 C-1.33 49 -1.66 49 -2 49 C-2.17 43.23 -2.17 43.23 -3 14 C-3.33 14 -3.66 14 -4 14 C-3.67 10.37 -3.34 6.74 -3 3 C-2.67 3.5 -2.67 3.5 -1 6 C-0.67 4.02 -0.34 2.04 0 0 Z "
    fill="#6C369B"
    transform="translate(344,562)"
  />
  <path
    d="M0 0 C0.99 0 1.98 0 3 0 C3.12 15.38 3.12 15.38 2 21 C1.01 21.99 0.02 22.98 -1 24 C-1.08 15.92 -0.97 8.03 0 0 Z "
    fill="#0F0F0F"
    transform="translate(965,498)"
  />
  <path
    d="M0 0 C1.32 0 2.64 0 4 0 C9 8 9 8 10 11 C10.99 10.67 11.98 10.34 13 10 C13.99 12.64 14.98 15.28 16 18 C15.01 18 14.02 18 13 18 C0 4.27 0 4.27 0 0 Z "
    fill="#9F4EE3"
    transform="translate(340,837)"
  />
  <path
    d="M0 0 C0.99 0.66 1.98 1.32 3 2 C3.99 2 4.98 2 6 2 C8.64 2 11.28 2 14 2 C14.33 2.5 14.33 2.5 16 5 C16.99 5.66 17.98 6.32 19 7 C8.14 5.91 -2.37 4.49 -13 2 C-11.68 1.67 -10.36 1.34 -9 1 C-7 0 -7 0 0 0 Z "
    fill="#30302F"
    transform="translate(460,768)"
  />
  <path
    d="M0 0 C18 6 18 6 21 9 C19.35 9.33 17.7 9.66 16 10 C15.67 9.34 15.34 8.68 15 8 C13.02 8 11.04 8 9 8 C9 7.34 9 6.68 9 6 C7.35 6 5.7 6 4 6 C3.17 5.67 3.17 5.67 -1 4 C-1.33 3.01 -1.66 2.02 -2 1 C-1.34 0.67 -0.68 0.34 0 0 Z "
    fill="#0B0410"
    transform="translate(717,340)"
  />
  <path
    d="M0 0 C0 0.33 0 0.66 0 1 C-6 1 -6 1 -8 0 C-8 0.66 -8 1.32 -8 2 C-9.32 1.67 -10.64 1.34 -12 1 C-12.33 0.01 -12.66 -0.98 -13 -2 C-15.97 -1.34 -18.94 -0.68 -22 0 C-28 0 -28 0 -32 -3 C-20.94 -4.84 -10.71 -3 0 0 Z "
    fill="#16091F"
    transform="translate(683,329)"
  />
  <path
    d="M0 0 C-1 4 -1 4 -5 7 C-6.32 7.33 -7.64 7.66 -9 8 C-9 8.33 -9 8.66 -9 9 C-11.64 9.66 -14.28 10.32 -17 11 C-18.65 11.66 -20.3 12.32 -22 13 C-23.32 12.67 -24.64 12.34 -26 12 C-21.73 9.87 -17.43 7.77 -13 6 C-12.06 5.48 -12.06 5.48 -7.31 2.88 C-2 0 -2 0 0 0 Z "
    fill="#D9D9D9"
    transform="translate(751,724)"
  />
  <path
    d="M0 0 C2.97 1.32 5.94 2.64 9 4 C9.33 5.65 9.66 7.3 10 9 C5 10 5 10 -1 8 C-1.33 5.69 -1.66 3.38 -2 1 C-1.34 0.67 -0.68 0.34 0 0 Z "
    fill="#9444DA"
    transform="translate(420,718)"
  />
  <path
    d="M0 0 C4 1 4 1 9 6 C9 6.99 9 7.98 9 9 C9.66 9 10.32 9 11 9 C11 9.66 11 10.32 11 11 C12.65 11.33 14.3 11.66 16 12 C15.67 12.16 15.67 12.16 14 13 C13.67 13.66 13.34 14.32 13 15 C7.62 10.71 2.28 6.4 -3 2 C-2.01 1.34 -1.02 0.68 0 0 Z "
    fill="#0C0613"
    transform="translate(386,690)"
  />
  <path
    d="M0 0 C4.38 5.84 6.98 12.38 10 19 C8.68 19.33 7.36 19.66 6 20 C6 19.01 6 18.02 6 17 C5.34 17 4.68 17 4 17 C1 12 1 12 -1 6 C-0.34 6 0.32 6 1 6 C0.67 4.02 0.34 2.04 0 0 Z "
    fill="#EAEAE8"
    transform="translate(266,640)"
  />
  <path
    d="M0 0 C3.82 3.82 4.48 9.93 6 15 C6.66 16.65 7.32 18.3 8 20 C7.34 20.99 6.68 21.98 6 23 C5.67 21.35 5.34 19.7 5 18 C4.01 18 3.02 18 2 18 C-0.13 11.61 -0.15 6.69 0 0 Z "
    fill="#0F0618"
    transform="translate(272,586)"
  />
  <path
    d="M0 0 C0.33 0 0.66 0 1 0 C1 6.27 1 12.54 1 19 C-0.65 19.33 -2.3 19.66 -4 20 C-5.49 12.55 -2.5 7.02 0 0 Z "
    fill="#502B91"
    transform="translate(957,566)"
  />
  <path
    d="M0 0 C0 0.66 0 1.32 0 2 C1.98 1.67 3.96 1.34 6 1 C6 1.66 6 2.32 6 3 C4.39 3.12 2.78 3.25 1.12 3.38 C-4 4 -4 4 -6 6 C-11.01 5.44 -16.02 4.83 -21 4 C-21 3.67 -21 3.34 -21 3 C-4.5 0 -4.5 0 0 0 Z "
    fill="#12081B"
    transform="translate(705,968)"
  />
  <path
    d="M0 0 C0.99 0.99 1.98 1.98 3 3 C-7.5 12.75 -7.5 12.75 -12 15 C-12 13.35 -12 11.7 -12 10 C-11.01 10 -10.02 10 -9 10 C-9 9.34 -9 8.68 -9 8 C-8.34 8 -7.68 8 -7 8 C-7 7.01 -7 6.02 -7 5 C-6.34 5 -5.68 5 -5 5 C-5 4.34 -5 3.68 -5 3 C-3.35 2.01 -1.7 1.02 0 0 Z "
    fill="#F0EFED"
    transform="translate(875,877)"
  />
  <path
    d="M0 0 C8 6 8 6 11 9 C8.36 9.66 5.72 10.32 3 11 C1.35 9.35 -0.3 7.7 -2 6 C-1.34 4.02 -0.68 2.04 0 0 Z "
    fill="#A95BED"
    transform="translate(295,731)"
  />
  <path
    d="M0 0 C0.66 0.33 1.32 0.66 2 1 C1.34 2.32 0.68 3.64 0 5 C-0.66 5 -1.32 5 -2 5 C-2.66 6.65 -3.32 8.3 -4 10 C-4.99 10.83 -4.99 10.83 -10 15 C-11.32 14.34 -12.64 13.68 -14 13 C-10.04 8.05 -6.03 4.79 -1 1 C-0.67 0.67 -0.34 0.34 0 0 Z "
    fill="#131312"
    transform="translate(841,701)"
  />
  <path
    d="M0 0 C0 0.99 0 1.98 0 3 C-2.67 5.67 -5.33 8.33 -8 11 C-8.99 12.98 -9.98 14.96 -11 17 C-11.66 17 -12.32 17 -13 17 C-13 17.66 -13 18.32 -13 19 C-14.32 19.33 -15.64 19.66 -17 20 C-17.66 20.99 -18.32 21.98 -19 23 C-20.32 22.67 -21.64 22.34 -23 22 C-22.46 21.5 -22.46 21.5 -19.75 18.96 C-19.04 18.3 -19.04 18.3 -15.44 14.94 C-14.03 13.63 -12.63 12.32 -11.18 10.96 C-7.39 7.37 -3.69 3.69 0 0 Z "
    fill="#1B1B1A"
    transform="translate(867,677)"
  />
  <path
    d="M0 0 C0.99 1.32 1.98 2.64 3 4 C1 10 1 10 -3 12 C-3 12.99 -3 13.98 -3 15 C-4.65 14.67 -6.3 14.34 -8 14 C-2.25 3.38 -2.25 3.38 0 0 Z "
    fill="#0F0F0F"
    transform="translate(911,621)"
  />
  <path
    d="M0 0 C0.33 0 0.66 0 1 0 C1.84 5.5 2.67 11 3.5 16.5 C3.96 19.56 4.43 22.63 4.91 25.78 C6 34 6 34 6 42 C5.67 42 5.34 42 5 42 C5 40.35 5 38.7 5 37 C4.34 37 3.68 37 3 37 C3 33.7 3 30.4 3 27 C1.6 18.6 1.6 18.6 -1 16 C-1 10 -1 10 0 8 C0 5.36 0 2.72 0 0 Z "
    fill="#CFCECC"
    transform="translate(992,532)"
  />
  <path
    d="M0 0 C0.33 0 0.66 0 1 0 C1.33 5.28 1.66 10.56 2 16 C2.66 15.67 3.32 15.34 4 15 C5.25 28.62 5.25 28.62 3 32 C2.34 32 1.68 32 1 32 C0.13 25.01 -0.1 18.53 -0.06 11.5 C-0.05 9.34 -0.04 7.19 -0.04 4.97 C-0.02 3.33 -0.01 1.69 0 0 Z "
    fill="#8E43CD"
    transform="translate(266,530)"
  />
  <path
    d="M0 0 C0.66 0 1.32 0 2 0 C4.7 6.75 4.13 12.79 4 20 C3.01 20.33 2.02 20.66 1 21 C-0.66 5.47 -0.66 5.47 -1 1 C-0.67 0.67 -0.34 0.34 0 0 Z "
    fill="#10100F"
    transform="translate(947,455)"
  />
  <path
    d="M0 0 C0.99 0 1.98 0 3 0 C3.33 1.65 3.66 3.3 4 5 C3.34 5 2.68 5 2 5 C1.67 6.65 1.34 8.3 1 10 C-0.65 10.33 -2.3 10.66 -4 11 C-4 11.66 -4 12.32 -4 13 C-5.32 13.33 -6.64 13.66 -8 14 C-5.89 8.73 -3.35 4.58 0 0 Z "
    fill="#A04FE4"
    transform="translate(318,397)"
  />
  <path
    d="M0 0 C-0.33 1.32 -0.66 2.64 -1 4 C-3.64 3.67 -6.28 3.34 -9 3 C-9.33 3.99 -9.66 4.98 -10 6 C-17 5 -17 5 -19 3 C-6.75 -1.12 -6.75 -1.12 0 0 Z "
    fill="#0A040F"
    transform="translate(556,333)"
  />
  <path
    d="M0 0 C5.63 2.25 10.74 5.03 16.06 7.94 C17.04 8.47 17.04 8.47 21.97 11.15 C27 14 27 14 31 17 C24.32 15.89 19.44 14.08 14 10 C11.36 8.68 8.72 7.36 6 6 C4.02 4.68 2.04 3.36 0 2 C0 1.34 0 0.68 0 0 Z "
    fill="#A057E9"
    transform="translate(461,891)"
  />
  <path
    d="M0 0 C0.99 0.33 1.98 0.66 3 1 C3 3.31 3 5.62 3 8 C1.02 8.66 -0.96 9.32 -3 10 C-3.33 10.16 -3.33 10.16 -5 11 C-5.33 10.34 -5.66 9.68 -6 9 C-7.32 9.99 -8.64 10.98 -10 12 C-10 11.01 -10 10.02 -10 9 C-6.73 5.93 -3.4 2.93 0 0 Z "
    fill="#9F52E9"
    transform="translate(841,852)"
  />
  <path
    d="M0 0 C0 0.99 0 1.98 0 3 C-5.74 5.87 -10.68 5.31 -17 5 C-17.66 4.01 -18.32 3.02 -19 2 C-12.31 0.49 -6.99 0 0 0 Z "
    fill="#EAEAE9"
    transform="translate(590,775)"
  />
</svg>
